<?xml version="1.0" encoding="UTF-8"?>
<svg version="1.1" xmlns="http://www.w3.org/2000/svg" width="225" height="225">
<path d="M0 0 C74.25 0 148.5 0 225 0 C225 74.25 225 148.5 225 225 C150.75 225 76.5 225 0 225 C0 150.75 0 76.5 0 0 Z " fill="#FEFEFE" transform="translate(0,0)"/>
<path d="M0 0 C0.6133829 7.23791822 0.6133829 7.23791822 -2.0625 10.5625 C-3.66192746 11.88968449 -5.26573393 13.2119283 -6.890625 14.5078125 C-10.80685285 17.89663811 -10.80685285 17.89663811 -12.4453125 22.671875 C-12.43830448 25.15271568 -12.31182294 27.54006351 -12 30 C-11.34 30 -10.68 30 -10 30 C-10 30.99 -10 31.98 -10 33 C-10.66 33 -11.32 33 -12 33 C-12 35.97 -12 38.94 -12 42 C-11.01 42 -10.02 42 -9 42 C-9 42.99 -9 43.98 -9 45 C-9.66 45 -10.32 45 -11 45 C-10.67 49.62 -10.34 54.24 -10 59 C-7.03 59 -4.06 59 -1 59 C-1.33 60.32 -1.66 61.64 -2 63 C-10.415 63.495 -10.415 63.495 -19 64 C-13.72 65.32 -8.44 66.64 -3 68 C-3.33 70.31 -3.66 72.62 -4 75 C-21.16 75.33 -38.32 75.66 -56 76 C-45.1709368 77.27168915 -45.1709368 77.27168915 -34.34179688 78.54272461 C-32.96744517 78.70424098 -31.59309605 78.86577928 -30.21875 79.02734375 C-29.52555664 79.10859497 -28.83236328 79.18984619 -28.11816406 79.27355957 C-23.40928932 79.82749627 -18.70416558 80.40736738 -14 81 C-16 83 -16 83 -19.125 83.125 C-20.07375 83.08375 -21.0225 83.0425 -22 83 C-22 83.66 -22 84.32 -22 85 C-19.83217629 86.08391186 -17.67730051 86.80602983 -15.375 87.5625 C-14.55773437 87.83191406 -13.74046875 88.10132813 -12.8984375 88.37890625 C-12.27195313 88.58386719 -11.64546875 88.78882813 -11 89 C-11 89.66 -11 90.32 -11 91 C-14.04941541 92.5247077 -17.27042709 92.39026204 -20.625 92.5625 C-21.42591064 92.6049585 -22.22682129 92.64741699 -23.05200195 92.69116211 C-36.68479547 93.31236853 -50.35705075 93.08213316 -64 93 C-64 93.66 -64 94.32 -64 95 C-63.20464844 94.96519531 -62.40929687 94.93039063 -61.58984375 94.89453125 C-46.65293662 94.55904991 -31.83160384 96.42407224 -17 98 C-19.75475347 100.75475347 -21.57660793 100.37981113 -25.43359375 100.59765625 C-26.72201172 100.67693359 -28.01042969 100.75621094 -29.33789062 100.83789062 C-30.704395 100.91334379 -32.07093206 100.98820713 -33.4375 101.0625 C-36.1032284 101.21476403 -38.76837089 101.37399085 -41.43359375 101.53515625 C-43.21334595 101.63389038 -43.21334595 101.63389038 -45.02905273 101.73461914 C-48.05333777 101.88968577 -48.05333777 101.88968577 -51 103 C-50.35973877 103.05534912 -49.71947754 103.11069824 -49.05981445 103.16772461 C-46.1437846 103.42144165 -43.22814766 103.67942949 -40.3125 103.9375 C-39.30509766 104.02451172 -38.29769531 104.11152344 -37.25976562 104.20117188 C-36.28330078 104.28818359 -35.30683594 104.37519531 -34.30078125 104.46484375 C-32.95753784 104.58267212 -32.95753784 104.58267212 -31.5871582 104.70288086 C-29.01701177 104.9980463 -26.52813451 105.45612236 -24 106 C-26.19723233 108.85230781 -27.62073205 110.68166017 -31.19384766 111.50634766 C-33.74178819 111.71499551 -36.25617531 111.79534346 -38.8125 111.8125 C-39.69615234 111.83763672 -40.57980469 111.86277344 -41.49023438 111.88867188 C-43.65968134 111.94730558 -45.82988727 111.97657386 -48 112 C-43.71 112.33 -39.42 112.66 -35 113 C-35 113.66 -35 114.32 -35 115 C-52.81252043 123.87753034 -72.07226757 127.61216932 -91.75 122.375 C-98.12019139 120.19943095 -104.10748784 117.23764404 -110 114 C-110 113.34 -110 112.68 -110 112 C-107.36 111.67 -104.72 111.34 -102 111 C-103.37285156 110.92652344 -103.37285156 110.92652344 -104.7734375 110.8515625 C-105.96195313 110.77679688 -107.15046875 110.70203125 -108.375 110.625 C-109.55835938 110.55539063 -110.74171875 110.48578125 -111.9609375 110.4140625 C-115 110 -115 110 -117 108 C-119.34805297 108.34181034 -119.34805297 108.34181034 -122 109 C-127.58804805 109.45877649 -132.40072959 109.72949177 -137.5625 107.375 C-141.91204643 103.1369804 -143.18566143 99.62038279 -143.4375 93.625 C-143.27026903 85.81432983 -141.12270879 78.46738628 -139 71 C-137.741875 70.67257813 -136.48375 70.34515625 -135.1875 70.0078125 C-134.47980469 69.8236377 -133.77210938 69.63946289 -133.04296875 69.44970703 C-130.65494297 68.92404457 -128.43699199 68.847688 -126 69 C-126 68.34 -126 67.68 -126 67 C-128.64 66.67 -131.28 66.34 -134 66 C-134 65.67 -134 65.34 -134 65 C-128.5444125 63.94779426 -123.1044701 63.5969837 -117.5703125 63.24609375 C-116.69173584 63.18812622 -115.81315918 63.13015869 -114.90795898 63.07043457 C-111.64718675 62.85617294 -108.3860725 62.64714201 -105.125 62.4375 C-97.82375 61.963125 -90.5225 61.48875 -83 61 C-112.205 60.505 -112.205 60.505 -142 60 C-142 48 -142 48 -141 43 C-137.14500431 43.08142773 -133.29152725 43.19422354 -129.4375 43.3125 C-128.35146484 43.33505859 -127.26542969 43.35761719 -126.14648438 43.38085938 C-117.77930075 43.66061323 -117.77930075 43.66061323 -113.45703125 45.54296875 C-107.57738231 48.02105808 -101.4393582 47.12080902 -95.15625 46.8828125 C-88.8584575 46.7389543 -83.76631596 47.44535691 -77.75439453 49.28759766 C-72.99317536 50.51904931 -68.20802195 50.57211733 -63.3125 50.6875 C-62.31283203 50.72166016 -61.31316406 50.75582031 -60.28320312 50.79101562 C-57.8555813 50.87232353 -55.42826735 50.94183983 -53 51 C-53 50.01 -53 49.02 -53 48 C-53.763125 47.71125 -54.52625 47.4225 -55.3125 47.125 C-58 46 -58 46 -61 44 C-61 43.34 -61 42.68 -61 42 C-60.09378906 42.11601563 -59.18757813 42.23203125 -58.25390625 42.3515625 C-50.80891888 42.99818829 -50.80891888 42.99818829 -44.2421875 39.984375 C-41.97777594 37.42060055 -39.96912534 34.79515674 -38 32 C-36.99033976 30.82365056 -35.97168886 29.65484423 -34.9375 28.5 C-32.79580944 26.26367752 -32.79580944 26.26367752 -33 24 C-37.50304153 19.16746763 -43.67213139 17.99796077 -49.8125 16.25 C-50.88693359 15.93417969 -51.96136719 15.61835937 -53.06835938 15.29296875 C-55.70940468 14.51826213 -58.35308352 13.75435371 -61 13 C-60.67 12.01 -60.34 11.02 -60 10 C-59.03578125 10.01160156 -58.0715625 10.02320313 -57.078125 10.03515625 C-55.18320313 10.04869141 -55.18320313 10.04869141 -53.25 10.0625 C-51.37054688 10.07990234 -51.37054688 10.07990234 -49.453125 10.09765625 C-46.71463499 10.02021027 -44.58119707 9.82780815 -42 9 C-42 9.66 -42 10.32 -42 11 C-35.91591528 11.19814261 -35.91591528 11.19814261 -30 10 C-30 10.66 -30 11.32 -30 12 C-23.68842348 12.83746196 -23.68842348 12.83746196 -17.953125 10.6171875 C-16.18955157 8.81459696 -14.57216862 6.97132024 -13 5 C-8.66341993 -0.22613496 -6.51417476 -0.55204871 0 0 Z " fill="#509DE6" transform="translate(184,45)"/>
<path d="M0 0 C1.05574219 -0.01611328 2.11148438 -0.03222656 3.19921875 -0.04882812 C13.0330241 -0.05484637 22.06910797 1.88158674 31.125 5.75 C32.06085938 6.14058594 32.99671875 6.53117187 33.9609375 6.93359375 C39.71429982 9.77804319 44.42602461 13.5763077 49.125 17.875 C49.67027344 18.35646484 50.21554688 18.83792969 50.77734375 19.33398438 C52.16273639 20.59611526 53.46386455 21.94936291 54.75 23.3125 C54.75 24.3025 54.75 25.2925 54.75 26.3125 C54.09 26.9725 53.43 27.6325 52.75 28.3125 C50.3671875 28.2890625 50.3671875 28.2890625 47.625 27.9375 C46.71492188 27.82664062 45.80484375 27.71578125 44.8671875 27.6015625 C44.16851562 27.50617187 43.46984375 27.41078125 42.75 27.3125 C42.75 26.6525 42.75 25.9925 42.75 25.3125 C42.21375 25.6425 41.6775 25.9725 41.125 26.3125 C38.17782633 27.55341523 35.92065216 27.51928166 32.75 27.3125 C32.09 26.9825 31.43 26.6525 30.75 26.3125 C30.75 25.6525 30.75 24.9925 30.75 24.3125 C30.23953125 24.63992187 29.7290625 24.96734375 29.203125 25.3046875 C25.88227963 26.66898384 23.07627432 26.5037273 19.5 26.4375 C18.23671875 26.41945313 16.9734375 26.40140625 15.671875 26.3828125 C14.70765625 26.35960938 13.7434375 26.33640625 12.75 26.3125 C12.42 26.9725 12.09 27.6325 11.75 28.3125 C12.94625 28.56 14.1425 28.8075 15.375 29.0625 C35.34335443 33.58781646 35.34335443 33.58781646 40.75 39.3125 C37.38941158 46.38007896 32.16522437 53.73559473 25.75 58.3125 C21.03792196 59.72716873 16.38656062 58.64021076 11.75 57.3125 C11.75 57.9725 11.75 58.6325 11.75 59.3125 C12.513125 59.60125 13.27625 59.89 14.0625 60.1875 C16.75 61.3125 16.75 61.3125 19.75 63.3125 C19.75 64.3025 19.75 65.2925 19.75 66.3125 C16.31266883 66.40119652 12.87563975 66.45344878 9.4375 66.5 C8.48037109 66.52513672 7.52324219 66.55027344 6.53710938 66.57617188 C1.47274382 66.62732708 -2.85887022 66.2888034 -7.71484375 64.80078125 C-13.72145695 62.98090479 -19.2729146 63.07662555 -25.5 63.3125 C-32.75155908 63.58308056 -37.55762045 63.37142986 -44.25 60.3125 C-47.45343626 59.84585771 -50.64130981 59.75823697 -53.875 59.6875 C-63.98454617 59.37451095 -63.98454617 59.37451095 -68.25 58.3125 C-67.15636851 51.41974364 -65.34952105 45.55385637 -62.25 39.3125 C-61.82074219 38.42820313 -61.39148437 37.54390625 -60.94921875 36.6328125 C-59.18902561 33.0501185 -57.46699835 29.63799752 -55.25 26.3125 C-54.59 26.3125 -53.93 26.3125 -53.25 26.3125 C-52.92 25.3225 -52.59 24.3325 -52.25 23.3125 C-51.59 23.3125 -50.93 23.3125 -50.25 23.3125 C-50.03085937 22.74660156 -49.81171875 22.18070313 -49.5859375 21.59765625 C-47.82358965 18.58311388 -45.60643118 16.91390862 -42.875 14.75 C-41.91851562 13.98558594 -40.96203125 13.22117187 -39.9765625 12.43359375 C-38.62691406 11.38365234 -38.62691406 11.38365234 -37.25 10.3125 C-36.60289063 9.77882813 -35.95578125 9.24515625 -35.2890625 8.6953125 C-32.65695802 6.91032211 -29.97308532 5.87371353 -27 4.75 C-25.92234375 4.33621094 -24.8446875 3.92242187 -23.734375 3.49609375 C-15.57004237 0.72278345 -8.60087245 -0.02587507 0 0 Z " fill="#FDA74D" transform="translate(111.25,29.6875)"/>
<path d="M0 0 C2.45898655 -0.08076963 4.91533742 -0.14037143 7.375 -0.1875 C8.07367188 -0.21263672 8.77234375 -0.23777344 9.4921875 -0.26367188 C11.5234375 -0.29296875 11.5234375 -0.29296875 15 0 C15.99 1.485 15.99 1.485 17 3 C17.33 2.67 17.66 2.34 18 2 C19.68608966 1.92794489 21.37500659 1.91613932 23.0625 1.9375 C23.98160156 1.94652344 24.90070313 1.95554687 25.84765625 1.96484375 C26.55792969 1.97644531 27.26820313 1.98804687 28 2 C27.67 3.32 27.34 4.64 27 6 C18.585 6.495 18.585 6.495 10 7 C15.28 8.32 20.56 9.64 26 11 C25.67 13.31 25.34 15.62 25 18 C7.84 18.33 -9.32 18.66 -27 19 C-16.1709368 20.27168915 -16.1709368 20.27168915 -5.34179688 21.54272461 C-3.96744517 21.70424098 -2.59309605 21.86577928 -1.21875 22.02734375 C-0.52555664 22.10859497 0.16763672 22.18984619 0.88183594 22.27355957 C5.59071068 22.82749627 10.29583442 23.40736738 15 24 C13 26 13 26 9.875 26.125 C8.92625 26.08375 7.9775 26.0425 7 26 C7 26.66 7 27.32 7 28 C9.16782371 29.08391186 11.32269949 29.80602983 13.625 30.5625 C14.44226563 30.83191406 15.25953125 31.10132813 16.1015625 31.37890625 C16.72804688 31.58386719 17.35453125 31.78882813 18 32 C18 32.66 18 33.32 18 34 C14.95058459 35.5247077 11.72957291 35.39026204 8.375 35.5625 C7.57408936 35.6049585 6.77317871 35.64741699 5.94799805 35.69116211 C-7.68479547 36.31236853 -21.35705075 36.08213316 -35 36 C-35 36.66 -35 37.32 -35 38 C-34.20464844 37.96519531 -33.40929687 37.93039063 -32.58984375 37.89453125 C-17.65293662 37.55904991 -2.83160384 39.42407224 12 41 C9.24524653 43.75475347 7.42339207 43.37981113 3.56640625 43.59765625 C2.27798828 43.67693359 0.98957031 43.75621094 -0.33789062 43.83789062 C-1.704395 43.91334379 -3.07093206 43.98820713 -4.4375 44.0625 C-7.1032284 44.21476403 -9.76837089 44.37399085 -12.43359375 44.53515625 C-13.62009521 44.600979 -14.80659668 44.66680176 -16.02905273 44.73461914 C-19.05333777 44.88968577 -19.05333777 44.88968577 -22 46 C-21.35973877 46.05534912 -20.71947754 46.11069824 -20.05981445 46.16772461 C-17.1437846 46.42144165 -14.22814766 46.67942949 -11.3125 46.9375 C-10.30509766 47.02451172 -9.29769531 47.11152344 -8.25976562 47.20117188 C-6.79506836 47.33168945 -6.79506836 47.33168945 -5.30078125 47.46484375 C-3.95753784 47.58267212 -3.95753784 47.58267212 -2.5871582 47.70288086 C-0.01701177 47.9980463 2.47186549 48.45612236 5 49 C2.80276767 51.85230781 1.37926795 53.68166017 -2.19384766 54.50634766 C-4.74178819 54.71499551 -7.25617531 54.79534346 -9.8125 54.8125 C-11.13797852 54.85020508 -11.13797852 54.85020508 -12.49023438 54.88867188 C-14.65968134 54.94730558 -16.82988727 54.97657386 -19 55 C-14.71 55.33 -10.42 55.66 -6 56 C-6 56.66 -6 57.32 -6 58 C-23.81252043 66.87753034 -43.07226757 70.61216932 -62.75 65.375 C-69.12019139 63.19943095 -75.10748784 60.23764404 -81 57 C-81 56.34 -81 55.68 -81 55 C-78.36 54.67 -75.72 54.34 -73 54 C-73.91523437 53.97421875 -74.83046875 53.9484375 -75.7734375 53.921875 C-76.96195313 53.86515625 -78.15046875 53.8084375 -79.375 53.75 C-80.55835937 53.70359375 -81.74171875 53.6571875 -82.9609375 53.609375 C-86 53 -86 53 -87.4140625 50.953125 C-87.60742188 50.30859375 -87.80078125 49.6640625 -88 49 C-87.22398438 48.61070312 -86.44796875 48.22140625 -85.6484375 47.8203125 C-70.86798481 40.16551958 -58.91850203 30.53239879 -47.04125977 18.89941406 C-46.36764404 18.27260742 -45.69402832 17.64580078 -45 17 C-44.51920486 16.49371063 -44.03840973 15.98742126 -43.54304504 15.46578979 C-39.52993008 11.5367018 -36.71829581 10.31704417 -31.10829163 10.32022095 C-30.26946945 10.35118866 -29.43064728 10.38215637 -28.56640625 10.4140625 C-27.2495005 10.42679703 -27.2495005 10.42679703 -25.9059906 10.43978882 C-23.12353663 10.47316581 -20.34406597 10.54840999 -17.5625 10.625 C-15.6673598 10.65512015 -13.77217381 10.68249235 -11.87695312 10.70703125 C-7.24925058 10.76778883 -2.62793172 10.88520518 2 11 C-4.93 9.68 -11.86 8.36 -19 7 C-19 6.67 -19 6.34 -19 6 C-15.37 6 -11.74 6 -8 6 C-8 5.34 -8 4.68 -8 4 C-3.71 3.67 0.58 3.34 5 3 C5 2.67 5 2.34 5 2 C3.35 1.67 1.7 1.34 0 1 C0 0.67 0 0.34 0 0 Z " fill="#5BAAEC" transform="translate(155,102)"/>
<path d="M0 0 C0.6133829 7.23791822 0.6133829 7.23791822 -2.0625 10.5625 C-3.66192746 11.88968449 -5.26573393 13.2119283 -6.890625 14.5078125 C-10.80685285 17.89663811 -10.80685285 17.89663811 -12.4453125 22.671875 C-12.43830448 25.15271568 -12.31182294 27.54006351 -12 30 C-11.34 30 -10.68 30 -10 30 C-10 30.99 -10 31.98 -10 33 C-10.66 33 -11.32 33 -12 33 C-12 35.97 -12 38.94 -12 42 C-11.01 42 -10.02 42 -9 42 C-9 42.99 -9 43.98 -9 45 C-9.66 45 -10.32 45 -11 45 C-10.67 49.62 -10.34 54.24 -10 59 C-10.99 59.66 -11.98 60.32 -13 61 C-13.495 59.02 -13.495 59.02 -14 57 C-14.55945313 57.01160156 -15.11890625 57.02320313 -15.6953125 57.03515625 C-34.34061931 57.24499089 -34.34061931 57.24499089 -42 55 C-42 56.98 -42 58.96 -42 61 C-42.66 61 -43.32 61 -44 61 C-44.350625 60.195625 -44.70125 59.39125 -45.0625 58.5625 C-46.85197954 55.59013129 -46.85197954 55.59013129 -50.71875 55.3515625 C-57.28029047 54.80155966 -63.85711846 54.80847727 -70.4375 54.8125 C-71.46505402 54.81240936 -71.46505402 54.81240936 -72.5133667 54.81231689 C-83.73720131 54.82620578 -94.92097859 55.22236133 -106.125 55.875 C-107.17130081 55.93380844 -107.17130081 55.93380844 -108.23873901 55.99380493 C-116.56317569 56.47277548 -124.7688383 57.28558546 -133.00732422 58.60205078 C-136 59 -136 59 -141 59 C-141 53.72 -141 48.44 -141 43 C-137.14478092 43.08727662 -133.29178911 43.19421551 -129.4375 43.3125 C-128.35146484 43.33505859 -127.26542969 43.35761719 -126.14648438 43.38085938 C-117.77930075 43.66061323 -117.77930075 43.66061323 -113.45703125 45.54296875 C-107.57738231 48.02105808 -101.4393582 47.12080902 -95.15625 46.8828125 C-88.8584575 46.7389543 -83.76631596 47.44535691 -77.75439453 49.28759766 C-72.99317536 50.51904931 -68.20802195 50.57211733 -63.3125 50.6875 C-62.31283203 50.72166016 -61.31316406 50.75582031 -60.28320312 50.79101562 C-57.8555813 50.87232353 -55.42826735 50.94183983 -53 51 C-53 50.01 -53 49.02 -53 48 C-53.763125 47.71125 -54.52625 47.4225 -55.3125 47.125 C-58 46 -58 46 -61 44 C-61 43.34 -61 42.68 -61 42 C-60.09378906 42.11601563 -59.18757813 42.23203125 -58.25390625 42.3515625 C-50.80891888 42.99818829 -50.80891888 42.99818829 -44.2421875 39.984375 C-41.97777594 37.42060055 -39.96912534 34.79515674 -38 32 C-36.99033976 30.82365056 -35.97168886 29.65484423 -34.9375 28.5 C-32.79580944 26.26367752 -32.79580944 26.26367752 -33 24 C-37.50304153 19.16746763 -43.67213139 17.99796077 -49.8125 16.25 C-50.88693359 15.93417969 -51.96136719 15.61835937 -53.06835938 15.29296875 C-55.70940468 14.51826213 -58.35308352 13.75435371 -61 13 C-60.67 12.01 -60.34 11.02 -60 10 C-59.03578125 10.01160156 -58.0715625 10.02320313 -57.078125 10.03515625 C-55.18320313 10.04869141 -55.18320313 10.04869141 -53.25 10.0625 C-51.37054688 10.07990234 -51.37054688 10.07990234 -49.453125 10.09765625 C-46.71463499 10.02021027 -44.58119707 9.82780815 -42 9 C-42 9.66 -42 10.32 -42 11 C-35.91591528 11.19814261 -35.91591528 11.19814261 -30 10 C-30 10.66 -30 11.32 -30 12 C-23.68842348 12.83746196 -23.68842348 12.83746196 -17.953125 10.6171875 C-16.18955157 8.81459696 -14.57216862 6.97132024 -13 5 C-8.66341993 -0.22613496 -6.51417476 -0.55204871 0 0 Z " fill="#10254C" transform="translate(184,45)"/>
<path d="M0 0 C0.75925781 -0.04125 1.51851562 -0.0825 2.30078125 -0.125 C4.375 -0.125 4.375 -0.125 8 1 C10.506827 4.47898674 13 8.61401574 13 13 C13.99 12.34 14.98 11.68 16 11 C15.01 8.03 14.02 5.06 13 2 C13.66 2 14.32 2 15 2 C16.4606285 4.64738916 17 5.89448334 17 9 C17.66 9 18.32 9 19 9 C19.66 6.69 20.32 4.38 21 2 C21.66 2 22.32 2 23 2 C23.495 5.465 23.495 5.465 24 9 C24.33 6.36 24.66 3.72 25 1 C25.60328125 1.01160156 26.2065625 1.02320313 26.828125 1.03515625 C27.62734375 1.04417969 28.4265625 1.05320313 29.25 1.0625 C30.43335937 1.07990234 30.43335937 1.07990234 31.640625 1.09765625 C33.99293776 1.0838463 33.99293776 1.0838463 36.171875 0.43359375 C38 0 38 0 40 1 C39.34 2.98 38.68 4.96 38 7 C40.12364481 7.22609337 40.12364481 7.22609337 41.625 5.5 C42.07875 5.005 42.5325 4.51 43 4 C43.495 5.98 43.495 5.98 44 8 C44.33 5.69 44.66 3.38 45 1 C45.99 1 46.98 1 48 1 C48.495 1.99 48.495 1.99 49 3 C50.32 2.67 51.64 2.34 53 2 C54.32 3.65 55.64 5.3 57 7 C57.33 5.02 57.66 3.04 58 1 C58.66 1 59.32 1 60 1 C60 4.96 60 8.92 60 13 C58.68 12.67 57.36 12.34 56 12 C55.855625 12.598125 55.71125 13.19625 55.5625 13.8125 C55.1127561 15.56150404 54.57107659 17.28677023 54 19 C53.37351562 19.06058594 52.74703125 19.12117188 52.1015625 19.18359375 C51.28429687 19.26738281 50.46703125 19.35117188 49.625 19.4375 C48.40683594 19.55931641 48.40683594 19.55931641 47.1640625 19.68359375 C44.95727195 19.89090114 44.95727195 19.89090114 43 21 C42.505 20.01 42.505 20.01 42 19 C39.97536745 18.34786708 39.97536745 18.34786708 38 18 C38 18.33 38 18.66 38 19 C28.46933922 20.24646469 28.46933922 20.24646469 24 19.5 C21.08577504 18.71204094 21.08577504 18.71204094 19 20 C18.01 19.67 17.02 19.34 16 19 C16 18.01 16 17.02 16 16 C15.34 16 14.68 16 14 16 C14 16.99 14 17.98 14 19 C10.16418458 20.38089355 6.93990328 19.77390957 3 19 C2.29875 18.62875 1.5975 18.2575 0.875 17.875 C-2.27709094 16.40402423 -4.98223486 17.70920996 -8.1875 18.625 C-10 19 -10 19 -12 18 C-12.72159424 16.35636866 -13.39351421 14.68949614 -14 13 C-14.66 13 -15.32 13 -16 13 C-16 9.7 -16 6.4 -16 3 C-17.32 3 -18.64 3 -20 3 C-20 2.34 -20 1.68 -20 1 C-13.27973598 0.1186539 -6.77299669 -0.16007082 0 0 Z " fill="#EFF1F2" transform="translate(86,176)"/>
<path d="M0 0 C2.45898655 -0.08076963 4.91533742 -0.14037143 7.375 -0.1875 C8.07367188 -0.21263672 8.77234375 -0.23777344 9.4921875 -0.26367188 C11.5234375 -0.29296875 11.5234375 -0.29296875 15 0 C15.66 0.99 16.32 1.98 17 3 C17.33 2.67 17.66 2.34 18 2 C19.68608966 1.92794489 21.37500659 1.91613932 23.0625 1.9375 C23.98160156 1.94652344 24.90070313 1.95554687 25.84765625 1.96484375 C26.55792969 1.97644531 27.26820313 1.98804687 28 2 C27.67 3.32 27.34 4.64 27 6 C18.585 6.495 18.585 6.495 10 7 C15.28 8.32 20.56 9.64 26 11 C25.67 13.31 25.34 15.62 25 18 C7.84 18.33 -9.32 18.66 -27 19 C-16.1709368 20.27168915 -16.1709368 20.27168915 -5.34179688 21.54272461 C-3.96744517 21.70424098 -2.59309605 21.86577928 -1.21875 22.02734375 C-0.52555664 22.10859497 0.16763672 22.18984619 0.88183594 22.27355957 C5.59071068 22.82749627 10.29583442 23.40736738 15 24 C13 26 13 26 9.875 26.125 C8.92625 26.08375 7.9775 26.0425 7 26 C7 26.66 7 27.32 7 28 C9.16782371 29.08391186 11.32269949 29.80602983 13.625 30.5625 C14.44226563 30.83191406 15.25953125 31.10132813 16.1015625 31.37890625 C16.72804687 31.58386719 17.35453125 31.78882813 18 32 C18 32.66 18 33.32 18 34 C14.6367176 35.6816412 10.83079493 35.39013744 7.125 35.5625 C6.26962646 35.6042334 5.41425293 35.6459668 4.53295898 35.68896484 C-13.75554372 36.53318211 -13.75554372 36.53318211 -19 35 C-19 34.34 -19 33.68 -19 33 C-20.485 32.505 -20.485 32.505 -22 32 C-21.01 32 -20.02 32 -19 32 C-19 31.01 -19 30.02 -19 29 C-20.32 28.34 -21.64 27.68 -23 27 C-21.68 27 -20.36 27 -19 27 C-19 26.34 -19 25.68 -19 25 C-20.093125 25.04125 -21.18625 25.0825 -22.3125 25.125 C-27.66203382 25.14420838 -32.77842235 24.07503069 -38 23 C-38 22.67 -38 22.34 -38 22 C-34.37 22 -30.74 22 -27 22 C-28.2375 21.87625 -29.475 21.7525 -30.75 21.625 C-33.8762197 21.24253695 -36.28879237 20.69450477 -39 19 C-38.505 17.515 -38.505 17.515 -38 16 C-34.37 16 -30.74 16 -27 16 C-27.33 15.34 -27.66 14.68 -28 14 C-27.67 13.34 -27.34 12.68 -27 12 C-17.43 11.67 -7.86 11.34 2 11 C-8.395 9.02 -8.395 9.02 -19 7 C-19 6.67 -19 6.34 -19 6 C-15.37 6 -11.74 6 -8 6 C-8 5.34 -8 4.68 -8 4 C-1.565 3.505 -1.565 3.505 5 3 C5 2.67 5 2.34 5 2 C2.525 1.505 2.525 1.505 0 1 C0 0.67 0 0.34 0 0 Z " fill="#65B8F3" transform="translate(155,102)"/>
<path d="M0 0 C0.495 0.99 0.495 0.99 1 2 C0.278125 2.556875 -0.44375 3.11375 -1.1875 3.6875 C-4.97241883 6.79954437 -8.30811897 10.29027676 -11.7265625 13.796875 C-18.13306837 20.34763186 -24.71498317 26.41445961 -32 32 C-32.77472656 32.60328125 -33.54945312 33.2065625 -34.34765625 33.828125 C-41.68123053 39.2640298 -49.79885399 43.071881 -58 47 C-58.99 47.495 -58.99 47.495 -60 48 C-65.55879415 48.50761444 -70.43348556 48.71455045 -75.5625 46.375 C-80.05772222 41.99503989 -81.18476062 38.43277982 -81.375 32.25 C-81.21862622 25.97941131 -80.62143201 18.62143201 -76 14 C-75.67386719 14.80824219 -75.34773438 15.61648437 -75.01171875 16.44921875 C-74.57472656 17.51785156 -74.13773438 18.58648437 -73.6875 19.6875 C-73.25824219 20.74324219 -72.82898438 21.79898438 -72.38671875 22.88671875 C-71.09976697 25.99086524 -71.09976697 25.99086524 -69.33203125 28.58203125 C-67.83355045 31.30214742 -67.7380364 32.94375799 -68 36 C-56.20180783 35.9444791 -45.12747829 30.76653499 -35.34375 24.4921875 C-33.47887134 23.30488142 -31.56481935 22.19489866 -29.63671875 21.11328125 C-26.02543552 19.06407897 -22.669758 16.75072669 -19.3125 14.3125 C-18.71743652 13.88404785 -18.12237305 13.4555957 -17.50927734 13.01416016 C-11.61429927 8.75433113 -5.79528268 4.39422533 0 0 Z " fill="#0E274F" transform="translate(122,106)"/>
<path d="M0 0 C3.85521908 0.08727662 7.70821089 0.19421551 11.5625 0.3125 C12.64853516 0.33505859 13.73457031 0.35761719 14.85351562 0.38085938 C23.22069925 0.66061323 23.22069925 0.66061323 27.54296875 2.54296875 C33.42261769 5.02105808 39.5606418 4.12080902 45.84375 3.8828125 C52.1415425 3.7389543 57.23368404 4.44535691 63.24560547 6.28759766 C68.00682464 7.51904931 72.79197805 7.57211733 77.6875 7.6875 C79.18700195 7.73874023 79.18700195 7.73874023 80.71679688 7.79101562 C83.1444187 7.87232353 85.57173265 7.94183983 88 8 C88 7.01 88 6.02 88 5 C88.99 4.67 89.98 4.34 91 4 C91.495 4.99 91.495 4.99 92 6 C92.99 5.34 93.98 4.68 95 4 C95.5534764 6.07553648 96 7.84365964 96 10 C96.495 10.433125 96.99 10.86625 97.5 11.3125 C99 13 99 13 99.1875 15.6875 C99.0946875 16.8321875 99.0946875 16.8321875 99 18 C98.34 18 97.68 18 97 18 C96.649375 17.195625 96.29875 16.39125 95.9375 15.5625 C94.14802046 12.59013129 94.14802046 12.59013129 90.28125 12.3515625 C83.71970953 11.80155966 77.14288154 11.80847727 70.5625 11.8125 C69.53494598 11.81240936 69.53494598 11.81240936 68.4866333 11.81231689 C57.26279869 11.82620578 46.07902141 12.22236133 34.875 12.875 C33.82869919 12.93380844 33.82869919 12.93380844 32.76126099 12.99380493 C24.43682431 13.47277548 16.2311617 14.28558546 7.99267578 15.60205078 C5 16 5 16 0 16 C0 10.72 0 5.44 0 0 Z " fill="#0C244D" transform="translate(43,88)"/>
<path d="M0 0 C0.33 0 0.66 0 1 0 C1 3.63 1 7.26 1 11 C1.97710937 10.80664062 2.95421875 10.61328125 3.9609375 10.4140625 C26.15904456 6.32956877 49.03605689 5.82141979 71.5625 5.8125 C72.88080811 5.81161377 74.19911621 5.81072754 75.55737305 5.80981445 C93.84810531 5.91791711 93.84810531 5.91791711 97.0625 8.9375 C98 11 98 11 98 13 C98.66 13 99.32 13 100 13 C100 11.02 100 9.04 100 7 C105.94 7.33 111.88 7.66 118 8 C118 8.66 118 9.32 118 10 C119.32 10.66 120.64 11.32 122 12 C118.39006828 13.13480527 115.0157673 13.10015767 111.25 13.0625 C110.07953125 13.05347656 108.9090625 13.04445313 107.703125 13.03515625 C106.81109375 13.02355469 105.9190625 13.01195313 105 13 C105 13.66 105 14.32 105 15 C103.35 15.33 101.7 15.66 100 16 C108.91 17.98 108.91 17.98 118 20 C118 20.33 118 20.66 118 21 C103.64996204 21.19778 89.3356023 20.59154812 75 20 C76.28062485 18.2925002 77.61767557 16.62626404 79 15 C79.66 15 80.32 15 81 15 C81 13.68 81 12.36 81 11 C77.37 10.67 73.74 10.34 70 10 C70 9.34 70 8.68 70 8 C62.08 8.33 54.16 8.66 46 9 C46 9.33 46 9.66 46 10 C52.27 10.33 58.54 10.66 65 11 C65 11.33 65 11.66 65 12 C43.55 12 22.1 12 0 12 C0 8.04 0 4.08 0 0 Z " fill="#478CD0" transform="translate(42,93)"/>
<path d="M0 0 C5.67767191 0.52244653 10.37732299 1.61870972 15.625 3.8125 C16.2540625 4.06064453 16.883125 4.30878906 17.53125 4.56445312 C24.48144354 7.39788265 29.9022274 11.55592655 35.375 16.5625 C35.92027344 17.04396484 36.46554688 17.52542969 37.02734375 18.02148438 C38.41273639 19.28361526 39.71386455 20.63686291 41 22 C41 22.99 41 23.98 41 25 C40.34 25.66 39.68 26.32 39 27 C36.6171875 26.9765625 36.6171875 26.9765625 33.875 26.625 C32.96492188 26.51414062 32.05484375 26.40328125 31.1171875 26.2890625 C30.41851562 26.19367187 29.71984375 26.09828125 29 26 C29 25.34 29 24.68 29 24 C28.46375 24.33 27.9275 24.66 27.375 25 C24.42782633 26.24091523 22.17065216 26.20678166 19 26 C18.34 25.67 17.68 25.34 17 25 C17 24.34 17 23.68 17 23 C16.484375 23.33 15.96875 23.66 15.4375 24 C11.21655271 25.73167068 6.80617811 25.02732807 2.3125 24.875 C-1.25067606 24.78103174 -1.25067606 24.78103174 -5 27 C-5 23.7 -5 20.4 -5 17 C-3.77023438 17.01160156 -2.54046875 17.02320312 -1.2734375 17.03515625 C0.35937347 17.04454022 1.9921861 17.05363977 3.625 17.0625 C4.43324219 17.07087891 5.24148437 17.07925781 6.07421875 17.08789062 C10.50341918 17.1058955 14.63883424 16.89622662 19 16 C19.66 14.02 20.32 12.04 21 10 C20.34 10 19.68 10 19 10 C19 9.34 19 8.68 19 8 C17.824375 8.2784375 17.824375 8.2784375 16.625 8.5625 C11.96066559 9.12543691 7.64022271 8.59607604 3 8 C3 5.69 3 3.38 3 1 C2.01 0.67 1.02 0.34 0 0 Z " fill="#FABE4D" transform="translate(125,31)"/>
<path d="M0 0 C1.2065625 0.0309375 1.2065625 0.0309375 2.4375 0.0625 C1.7775 2.3725 1.1175 4.6825 0.4375 7.0625 C2.56114481 7.28859337 2.56114481 7.28859337 4.0625 5.5625 C4.51625 5.0675 4.97 4.5725 5.4375 4.0625 C5.7675 5.3825 6.0975 6.7025 6.4375 8.0625 C6.7675 5.7525 7.0975 3.4425 7.4375 1.0625 C8.4275 1.0625 9.4175 1.0625 10.4375 1.0625 C10.7675 1.7225 11.0975 2.3825 11.4375 3.0625 C12.7575 2.7325 14.0775 2.4025 15.4375 2.0625 C16.7575 3.7125 18.0775 5.3625 19.4375 7.0625 C19.7675 5.0825 20.0975 3.1025 20.4375 1.0625 C21.0975 1.0625 21.7575 1.0625 22.4375 1.0625 C22.4375 5.0225 22.4375 8.9825 22.4375 13.0625 C21.1175 12.7325 19.7975 12.4025 18.4375 12.0625 C18.293125 12.660625 18.14875 13.25875 18 13.875 C17.5502561 15.62400404 17.00857659 17.34927023 16.4375 19.0625 C15.81101563 19.12308594 15.18453125 19.18367188 14.5390625 19.24609375 C13.31316406 19.37177734 13.31316406 19.37177734 12.0625 19.5 C11.25039062 19.58121094 10.43828125 19.66242188 9.6015625 19.74609375 C7.39477195 19.95340114 7.39477195 19.95340114 5.4375 21.0625 C5.1075 20.4025 4.7775 19.7425 4.4375 19.0625 C2.41286745 18.41036708 2.41286745 18.41036708 0.4375 18.0625 C0.4375 18.3925 0.4375 18.7225 0.4375 19.0625 C-10.12058656 20.39507403 -10.12058656 20.39507403 -14.5625 19.0625 C-14.5625 17.7425 -14.5625 16.4225 -14.5625 15.0625 C-12.9125 15.0625 -11.2625 15.0625 -9.5625 15.0625 C-10.61520463 13.90438612 -10.61520463 13.90438612 -12.5625 13.0625 C-12.5625 9.1025 -12.5625 5.1425 -12.5625 1.0625 C-11.098125 1.083125 -9.63375 1.10375 -8.125 1.125 C-6.60417482 1.14642007 -5.08178038 1.13429964 -3.5625 1.0625 C-2.5625 0.0625 -2.5625 0.0625 0 0 Z " fill="#EBEDEE" transform="translate(123.5625,175.9375)"/>
<path d="M0 0 C7.31858545 6.16852202 8.28992653 16.14785497 10 25 C-13.87995225 25.49520638 -13.87995225 25.49520638 -18 22 C-19.1015625 18.73046875 -19.1015625 18.73046875 -19 15 C-17.13842687 12.6653028 -15.64948832 11.1378688 -13.375 9.3125 C-12.84003906 8.85294922 -12.30507812 8.39339844 -11.75390625 7.91992188 C-10.18976819 6.58602798 -8.59915601 5.2915483 -7 4 C-5.62714844 2.84564453 -5.62714844 2.84564453 -4.2265625 1.66796875 C-2 0 -2 0 0 0 Z " fill="#FA7652" transform="translate(160,77)"/>
<path d="M0 0 C2.45898655 -0.08076963 4.91533742 -0.14037143 7.375 -0.1875 C8.07367188 -0.21263672 8.77234375 -0.23777344 9.4921875 -0.26367188 C11.5234375 -0.29296875 11.5234375 -0.29296875 15 0 C15.66 0.99 16.32 1.98 17 3 C17.33 2.67 17.66 2.34 18 2 C19.68608966 1.92794489 21.37500659 1.91613932 23.0625 1.9375 C23.98160156 1.94652344 24.90070313 1.95554687 25.84765625 1.96484375 C26.55792969 1.97644531 27.26820313 1.98804687 28 2 C27.67 3.32 27.34 4.64 27 6 C18.585 6.495 18.585 6.495 10 7 C15.28 8.32 20.56 9.64 26 11 C25.67 13.31 25.34 15.62 25 18 C13.12 18 1.24 18 -11 18 C-11 17.67 -11 17.34 -11 17 C-3.08 16.67 4.84 16.34 13 16 C13 15.34 13 14.68 13 14 C9.04 14 5.08 14 1 14 C1 13.67 1 13.34 1 13 C3.64 12.67 6.28 12.34 9 12 C-0.24 10.35 -9.48 8.7 -19 7 C-19 6.67 -19 6.34 -19 6 C-15.37 6 -11.74 6 -8 6 C-8 5.34 -8 4.68 -8 4 C-1.565 3.505 -1.565 3.505 5 3 C5 2.67 5 2.34 5 2 C2.525 1.505 2.525 1.505 0 1 C0 0.67 0 0.34 0 0 Z " fill="#6CBFF9" transform="translate(155,102)"/>
<path d="M0 0 C5.94 0.33 11.88 0.66 18 1 C18 1.66 18 2.32 18 3 C19.32 3.66 20.64 4.32 22 5 C18.39006828 6.13480527 15.0157673 6.10015767 11.25 6.0625 C10.07953125 6.05347656 8.9090625 6.04445313 7.703125 6.03515625 C6.81109375 6.02355469 5.9190625 6.01195313 5 6 C5 6.66 5 7.32 5 8 C3.35 8.33 1.7 8.66 0 9 C8.91 10.98 8.91 10.98 18 13 C18 13.33 18 13.66 18 14 C3.64996204 14.19778 -10.6643977 13.59154812 -25 13 C-23.71937515 11.2925002 -22.38232443 9.62626404 -21 8 C-20.34 8 -19.68 8 -19 8 C-18.34 6.68 -17.68 5.36 -17 4 C-12.05 4 -7.1 4 -2 4 C-2 4.66 -2 5.32 -2 6 C-1.34 6 -0.68 6 0 6 C0 4.02 0 2.04 0 0 Z " fill="#4792DE" transform="translate(142,100)"/>
<path d="M0 0 C0.66 0 1.32 0 2 0 C8.48493857 13.4825205 11.22143309 25.01636068 11 40 C8.03 40 5.06 40 2 40 C0.79431947 35.32798795 0.90617574 30.78503708 1 26 C1.66 26 2.32 26 3 26 C3 25.01 3 24.02 3 23 C2.01 23 1.02 23 0 23 C0 20.03 0 17.06 0 14 C0.66 14 1.32 14 2 14 C2 13.01 2 12.02 2 11 C1.34 11 0.68 11 0 11 C-1.16461426 7.50615721 -1.13568319 4.66344611 -1 1 C-0.67 0.67 -0.34 0.34 0 0 Z " fill="#DD9956" transform="translate(172,64)"/>
<path d="M0 0 C8.58 0.99 17.16 1.98 26 3 C24 5 24 5 20.875 5.125 C19.92625 5.08375 18.9775 5.0425 18 5 C18 5.66 18 6.32 18 7 C20.16782371 8.08391186 22.32269949 8.80602983 24.625 9.5625 C25.44226563 9.83191406 26.25953125 10.10132813 27.1015625 10.37890625 C27.72804687 10.58386719 28.35453125 10.78882813 29 11 C29 11.66 29 12.32 29 13 C25.6367176 14.6816412 21.83079493 14.39013744 18.125 14.5625 C16.8419397 14.6251001 16.8419397 14.6251001 15.53295898 14.68896484 C-2.75554372 15.53318211 -2.75554372 15.53318211 -8 14 C-8 13.34 -8 12.68 -8 12 C-8.99 11.67 -9.98 11.34 -11 11 C-10.01 11 -9.02 11 -8 11 C-8 10.34 -8 9.68 -8 9 C-3.38 8.67 1.24 8.34 6 8 C6 7.34 6 6.68 6 6 C5.34 5.34 4.68 4.68 4 4 C5.32 3.67 6.64 3.34 8 3 C5.36 2.67 2.72 2.34 0 2 C0 1.34 0 0.68 0 0 Z " fill="#74C4F3" transform="translate(144,123)"/>
<path d="M0 0 C0 2.64 0 5.28 0 8 C1.2375 7.835 2.475 7.67 3.75 7.5 C6.57820832 7.12290556 9.11564062 7 12 7 C12 7.66 12 8.32 12 9 C13.32 9 14.64 9 16 9 C16 9.66 16 10.32 16 11 C5.23271386 13.38604665 -6.0268474 13.15008871 -17 13 C-18.31626692 9.38026598 -19 6.90432869 -19 3 C-16.39643759 2.49666458 -13.79223349 1.99720622 -11.1875 1.5 C-10.08051758 1.28537109 -10.08051758 1.28537109 -8.95117188 1.06640625 C-5.92205609 0.49073719 -3.090804 0 0 0 Z " fill="#3F8CDE" transform="translate(64,113)"/>
<path d="M0 0 C1.87751953 0.00676758 1.87751953 0.00676758 3.79296875 0.01367188 C6.86202941 0.02538585 9.93098907 0.04178927 13 0.0625 C8.6130933 3.41787209 3.99284111 5.72494257 -1 8.0625 C-1.68578125 8.38863281 -2.3715625 8.71476563 -3.078125 9.05078125 C-8.38989374 11.32879589 -13.27654265 11.3791667 -19 11.0625 C-20.12880057 7.75135166 -21.21302675 4.47271743 -22 1.0625 C-14.65939989 -0.10282027 -7.42007939 -0.0509298 0 0 Z " fill="#4992DF" transform="translate(73,130.9375)"/>
<path d="M0 0 C1.43418504 0.14512297 2.86842976 0.28965739 4.30273438 0.43359375 C7.76503458 0.78230839 11.22646874 1.13888232 14.6875 1.5 C12.00731515 4.18018485 10.46175773 3.85640495 6.7109375 4.0625 C5.48914795 4.1361377 4.2673584 4.20977539 3.00854492 4.28564453 C1.7063501 4.35638184 0.40415527 4.42711914 -0.9375 4.5 C-11.46750089 5.14021992 -21.87526713 5.9549608 -32.3125 7.5 C-32.0340625 6.6028125 -32.0340625 6.6028125 -31.75 5.6875 C-31.09156313 3.33591238 -31.09156313 3.33591238 -32.3125 0.5 C-24.13530111 -4.95146593 -9.57218891 -1.00099858 0 0 Z " fill="#67B2EA" transform="translate(152.3125,141.5)"/>
<path d="M0 0 C10.56 0 21.12 0 32 0 C32 0.66 32 1.32 32 2 C34.97851562 1.95117188 34.97851562 1.95117188 37.95703125 1.90234375 C40 2 40 2 43 3 C42.67 3.99 42.34 4.98 42 6 C38.7 6.33 35.4 6.66 32 7 C32.495 8.485 32.495 8.485 33 10 C31.35 10.33 29.7 10.66 28 11 C28 10.67 28 10.34 28 10 C27.25234375 10 26.5046875 10 25.734375 10 C21.48958333 10 17.24479167 10 13 10 C13 9.34 13 8.68 13 8 C11.35 7.67 9.7 7.34 8 7 C8 6.67 8 6.34 8 6 C14.27 5.34 20.54 4.68 27 4 C19.74 3.67 12.48 3.34 5 3 C5 2.67 5 2.34 5 2 C3.35 1.67 1.7 1.34 0 1 C0 0.67 0 0.34 0 0 Z " fill="#59A8EB" transform="translate(80,101)"/>
<path d="M0 0 C19.25 0 19.25 0 23 1 C21.42572343 4.00611859 19.8521731 6.12149979 17 8 C12.22832008 8.32871573 7.70981771 7.7677648 3 7 C3 7.66 3 8.32 3 9 C4.1446875 9.433125 4.1446875 9.433125 5.3125 9.875 C8 11 8 11 11 13 C11 13.99 11 14.98 11 16 C7.37 16 3.74 16 0 16 C0 10.72 0 5.44 0 0 Z " fill="#FA8D52" transform="translate(120,80)"/>
<path d="M0 0 C-0.66 1.32 -1.32 2.64 -2 4 C-2.99 4 -3.98 4 -5 4 C-5.33 4.99 -5.66 5.98 -6 7 C-21.69228961 6.32006043 -37.34072571 5.2153097 -53 4 C-53 3.34 -53 2.68 -53 2 C-45.77345899 1.71462257 -38.54689427 1.42985137 -31.3203125 1.14550781 C-28.86034602 1.04864338 -26.40038505 0.95163858 -23.94042969 0.85449219 C-20.41082162 0.71512813 -16.88119421 0.57626383 -13.3515625 0.4375 C-12.24632233 0.39375244 -11.14108215 0.35000488 -10.00234985 0.30493164 C-8.98144257 0.26489014 -7.96053528 0.22484863 -6.90869141 0.18359375 C-6.00712311 0.14806396 -5.10555481 0.11253418 -4.17666626 0.07592773 C-2.78506054 0.02738494 -1.39245212 0 0 0 Z " fill="#F2F9FB" transform="translate(173,136)"/>
<path d="M0 0 C2.9379382 0.64389063 5.875351 1.29002779 8.8125 1.9375 C9.64587891 2.11990234 10.47925781 2.30230469 11.33789062 2.49023438 C12.54155273 2.75610352 12.54155273 2.75610352 13.76953125 3.02734375 C14.87711792 3.27085571 14.87711792 3.27085571 16.00708008 3.51928711 C18 4 18 4 21 5 C20.67 7.31 20.34 9.62 20 12 C8.12 12 -3.76 12 -16 12 C-16 11.67 -16 11.34 -16 11 C-8.08 10.67 -0.16 10.34 8 10 C8 9.34 8 8.68 8 8 C4.04 8 0.08 8 -4 8 C-4 7.67 -4 7.34 -4 7 C-1.36 6.67 1.28 6.34 4 6 C2.68 5.34 1.36 4.68 0 4 C0.66 3.67 1.32 3.34 2 3 C1.34 2.67 0.68 2.34 0 2 C0 1.34 0 0.68 0 0 Z " fill="#76CBFA" transform="translate(160,108)"/>
<path d="M0 0 C1.07765625 0.00902344 2.1553125 0.01804687 3.265625 0.02734375 C4.08546875 0.03894531 4.9053125 0.05054687 5.75 0.0625 C5.75 0.7225 5.75 1.3825 5.75 2.0625 C8.39 2.0625 11.03 2.0625 13.75 2.0625 C13.75 1.4025 13.75 0.7425 13.75 0.0625 C15.85409639 0.03548592 17.95829178 0.01609777 20.0625 0 C21.23425781 -0.01160156 22.40601563 -0.02320312 23.61328125 -0.03515625 C26.75 0.0625 26.75 0.0625 29.75 1.0625 C29.75 3.3725 29.75 5.6825 29.75 8.0625 C27.791036 7.75397815 25.83284287 7.4405582 23.875 7.125 C22.78445312 6.95097656 21.69390625 6.77695313 20.5703125 6.59765625 C17.75 6.0625 17.75 6.0625 15.75 5.0625 C13.97107655 5.00143438 12.18982594 5.00239258 10.41015625 5.03515625 C8.8159082 5.05352539 8.8159082 5.05352539 7.18945312 5.07226562 C4.94199185 5.1073619 2.69458876 5.14641095 0.44726562 5.18945312 C-0.61685547 5.20041016 -1.68097656 5.21136719 -2.77734375 5.22265625 C-4.24288696 5.24791382 -4.24288696 5.24791382 -5.73803711 5.27368164 C-8.25 5.0625 -8.25 5.0625 -11.25 3.0625 C-10.25 1.0625 -10.25 1.0625 -8.578125 0.44140625 C-5.68791344 -0.02898053 -2.92727465 -0.0318182 0 0 Z " fill="#F57A54" transform="translate(82.25,87.9375)"/>
<path d="M0 0 C0 2.31 0 4.62 0 7 C-0.88042969 7.03738281 -1.76085937 7.07476562 -2.66796875 7.11328125 C-3.82941406 7.17902344 -4.99085937 7.24476562 -6.1875 7.3125 C-7.33605469 7.37050781 -8.48460938 7.42851563 -9.66796875 7.48828125 C-13.14680104 8.02254506 -15.14531638 8.9947326 -18 11 C-17.67 11.33 -17.34 11.66 -17 12 C-16.67 13.32 -16.34 14.64 -16 16 C-20.95 16 -25.9 16 -31 16 C-22.71965987 7.71965987 -12.52199152 -0.78988444 0 0 Z " fill="#F9C050" transform="translate(96,32)"/>
<path d="M0 0 C1.62905273 0.13341797 1.62905273 0.13341797 3.29101562 0.26953125 C4.9703418 0.41841797 4.9703418 0.41841797 6.68359375 0.5703125 C8.3687207 0.70759766 8.3687207 0.70759766 10.08789062 0.84765625 C14.83755872 1.24840068 19.45725741 1.68372432 24.12109375 2.6953125 C22.49469699 5.19119106 21.67948957 6.26808996 19.12109375 7.6953125 C14.48785597 8.19713772 9.94737056 7.84138207 5.30859375 7.5078125 C4.04337891 7.43755859 2.77816406 7.36730469 1.47460938 7.29492188 C-1.64537966 7.11831872 -4.76189833 6.91766139 -7.87890625 6.6953125 C-7.87890625 6.0353125 -7.87890625 5.3753125 -7.87890625 4.6953125 C-9.52890625 4.3653125 -11.17890625 4.0353125 -12.87890625 3.6953125 C-12.54890625 2.7053125 -12.21890625 1.7153125 -11.87890625 0.6953125 C-7.76990558 -0.11482711 -4.16926394 -0.35019769 0 0 Z " fill="#68B7F0" transform="translate(135.87890625,148.3046875)"/>
<path d="M0 0 C6.93 0 13.86 0 21 0 C21 0.33 21 0.66 21 1 C28.26 1.33 35.52 1.66 43 2 C39.19043571 5.80956429 36.47235932 5.47194169 31.39453125 5.51171875 C30.55532639 5.52966995 29.71612152 5.54762115 28.85148621 5.56611633 C26.17187521 5.62028563 23.49244298 5.65413573 20.8125 5.6875 C18.99541779 5.72066729 17.1783592 5.7551564 15.36132812 5.79101562 C10.90768095 5.87601572 6.45408741 5.94279502 2 6 C1.34 4.02 0.68 2.04 0 0 Z " fill="#FDFAF7" transform="translate(48,126)"/>
<path d="M0 0 C0 4.29 0 8.58 0 13 C0.66 13 1.32 13 2 13 C2 11.68 2 10.36 2 9 C2.99 9 3.98 9 5 9 C5.268125 9.78375 5.53625 10.5675 5.8125 11.375 C6.84814432 14.28114923 6.84814432 14.28114923 10 16 C9.67 16.66 9.34 17.32 9 18 C7.33320313 18 5.66643527 17.9722174 4 17.9375 C1.07471349 17.78410712 1.07471349 17.78410712 -1 19 C-3.7839183 17.60804085 -3.97898997 15.84424221 -5 13 C-5.66 13 -6.32 13 -7 13 C-7 9.7 -7 6.4 -7 3 C-8.32 3 -9.64 3 -11 3 C-11 2.34 -11 1.68 -11 1 C-9.54182203 0.83197949 -8.0834516 0.66562857 -6.625 0.5 C-5.81289062 0.4071875 -5.00078125 0.314375 -4.1640625 0.21875 C-2 0 -2 0 0 0 Z " fill="#E8E9EB" transform="translate(77,176)"/>
<path d="M0 0 C0 0.99 0 1.98 0 3 C0.66 3.33 1.32 3.66 2 4 C1.67 3.01 1.34 2.02 1 1 C4.43774463 2.14591488 5.17413159 2.95688598 7 6 C7 7.32 7 8.64 7 10 C3.7 9.67 0.4 9.34 -3 9 C-3 8.34 -3 7.68 -3 7 C-3.53625 7.33 -4.0725 7.66 -4.625 8 C-7.57217367 9.24091523 -9.82934784 9.20678166 -13 9 C-13.66 8.67 -14.32 8.34 -15 8 C-15 7.34 -15 6.68 -15 6 C-15.515625 6.33 -16.03125 6.66 -16.5625 7 C-19.78026512 8.32010877 -22.5570528 8.13242105 -26 8 C-26 7.67 -26 7.34 -26 7 C-20.89665983 5.094753 -16.53657294 3.57410977 -11 4 C-10.67 3.34 -10.34 2.68 -10 2 C-10.66 1.67 -11.32 1.34 -12 1 C-9.92446352 0.4465236 -8.15634036 0 -6 0 C-3 -1 -3 -1 0 0 Z " fill="#FABB47" transform="translate(157,48)"/>
<path d="M0 0 C1.01037827 0.00222061 2.02075653 0.00444122 3.06175232 0.00672913 C4.77341331 0.00684242 4.77341331 0.00684242 6.51965332 0.00695801 C7.76129745 0.01211929 9.00294159 0.01728058 10.2822113 0.02259827 C12.17785072 0.02472069 12.17785072 0.02472069 14.11178589 0.02688599 C17.47705394 0.0315487 20.84225495 0.04053972 24.20750427 0.05158997 C27.63930175 0.06180606 31.07110614 0.06638403 34.50291443 0.07142639 C41.2405633 0.08248071 47.9781803 0.09923742 54.71580505 0.12025452 C54.71580505 0.45025452 54.71580505 0.78025452 54.71580505 1.12025452 C49.36730928 1.5320945 44.01858912 1.94085556 38.66966248 2.34706116 C36.85938033 2.4849372 35.04915628 2.62357868 33.23899841 2.76307678 C20.73787241 3.72577122 8.23961155 4.5188465 -4.28419495 5.12025452 C-3.16564122 0.16665944 -3.16564122 0.16665944 0 0 Z " fill="#EDF6F9" transform="translate(57.28419494628906,104.87974548339844)"/>
<path d="M0 0 C4.52020455 3.53259683 5.16705542 7.39741326 6.25 12.75 C6.42273438 13.54277344 6.59546875 14.33554688 6.7734375 15.15234375 C7.19554648 17.09873515 7.59958271 19.04903064 8 21 C-15.34066211 21.38860937 -15.34066211 21.38860937 -20 18 C-20.75 14.375 -20.75 14.375 -21 11 C-20.01 10.34 -19.02 9.68 -18 9 C-18.33 11.64 -18.66 14.28 -19 17 C-9.595 16.505 -9.595 16.505 0 16 C0 15.67 0 15.34 0 15 C1.65 15 3.3 15 5 15 C4.34 14.34 3.68 13.68 3 13 C2.34 13 1.68 13 1 13 C1.33 11.02 1.66 9.04 2 7 C1.01 7 0.02 7 -1 7 C-0.67 6.01 -0.34 5.02 0 4 C0 2.68 0 1.36 0 0 Z " fill="#EF6A5B" transform="translate(162,81)"/>
<path d="M0 0 C-0.99 0.495 -0.99 0.495 -2 1 C-2.71727778 2.64551962 -3.38325228 4.31422289 -4 6 C-4.33 6.66 -4.66 7.32 -5 8 C-11.27 8 -17.54 8 -24 8 C-24.66 6.68 -25.32 5.36 -26 4 C-17.75606839 -0.21356505 -9.10156941 -0.17172772 0 0 Z " fill="#4D95DC" transform="translate(93,147)"/>
<path d="M0 0 C1.65 0 3.3 0 5 0 C4.34 3.63 3.68 7.26 3 11 C4.98 11 6.96 11 9 11 C9 11.66 9 12.32 9 13 C3.06 12.67 -2.88 12.34 -9 12 C-9 8.7 -9 5.4 -9 2 C-6.36 2 -3.72 2 -1 2 C-0.67 1.34 -0.34 0.68 0 0 Z " fill="#9B9FAD" transform="translate(121,176)"/>
<path d="M0 0 C0.33 0 0.66 0 1 0 C1 2.64 1 5.28 1 8 C2.98 7.67 4.96 7.34 7 7 C7 9.31 7 11.62 7 14 C7.99 14.33 8.98 14.66 10 15 C10 18.63 10 22.26 10 26 C7.36 26 4.72 26 2 26 C0.79431947 21.32798795 0.90617574 16.78503708 1 12 C1.66 12 2.32 12 3 12 C3 11.01 3 10.02 3 9 C2.01 9 1.02 9 0 9 C0 6.03 0 3.06 0 0 Z " fill="#FD694F" transform="translate(172,78)"/>
<path d="M0 0 C2.97 0 5.94 0 9 0 C9 0.33 9 0.66 9 1 C6.36 1 3.72 1 1 1 C1 4.3 1 7.6 1 11 C3.01822917 10.90234375 5.03645833 10.8046875 7.0546875 10.70703125 C7.69664063 10.80371094 8.33859375 10.90039062 9 11 C9.99 12.485 9.99 12.485 11 14 C14.53672026 14.30754089 17.61045199 14.04293785 21 13 C21.33 14.65 21.66 16.3 22 18 C20.02 18.99 20.02 18.99 18 20 C17.67 19.34 17.34 18.68 17 18 C14.97536745 17.34786708 14.97536745 17.34786708 13 17 C13 17.33 13 17.66 13 18 C2.44191344 19.33257403 2.44191344 19.33257403 -2 18 C-2 16.68 -2 15.36 -2 14 C-0.35 14 1.3 14 3 14 C1.94729537 12.84188612 1.94729537 12.84188612 0 12 C0 8.04 0 4.08 0 0 Z " fill="#BBBDC3" transform="translate(111,177)"/>
<path d="M0 0 C0.85078125 0.04833984 1.7015625 0.09667969 2.578125 0.14648438 C3.46757812 0.20255859 4.35703125 0.25863281 5.2734375 0.31640625 C6.170625 0.36861328 7.0678125 0.42082031 7.9921875 0.47460938 C10.21127762 0.60444975 12.42993621 0.73941964 14.6484375 0.87890625 C14.6484375 1.53890625 14.6484375 2.19890625 14.6484375 2.87890625 C7.75104957 6.2224571 1.19817047 9.39856645 -6.3515625 10.87890625 C-6.72079327 6.3250601 -6.72079327 6.3250601 -4.8515625 4.06640625 C-4.3565625 3.67453125 -3.8615625 3.28265625 -3.3515625 2.87890625 C-4.3415625 2.21890625 -5.3315625 1.55890625 -6.3515625 0.87890625 C-3.94721244 -0.32326878 -2.66774881 -0.16006493 0 0 Z " fill="#68B7F0" transform="translate(134.3515625,157.12109375)"/>
<path d="M0 0 C4.62 0 9.24 0 14 0 C14 0.99 14 1.98 14 3 C16.64 3 19.28 3 22 3 C22 4.98 22 6.96 22 9 C13.50515863 8.96241221 7.3295066 6.11812484 0 2 C0 1.34 0 0.68 0 0 Z " fill="#519DE4" transform="translate(74,157)"/>
<path d="M0 0 C1.01755371 0.3259314 1.01755371 0.3259314 2.05566406 0.65844727 C4.80506334 1.03662769 7.55047995 1.39236966 10.30566406 1.72094727 C11.05074219 1.81182617 11.79582031 1.90270508 12.56347656 1.99633789 C14.39393463 2.2192783 16.22476416 2.43916507 18.05566406 2.65844727 C18.05566406 2.98844727 18.05566406 3.31844727 18.05566406 3.65844727 C17.18466064 3.71379639 16.31365723 3.76914551 15.41625977 3.82617188 C12.11917792 4.03610334 8.82214741 4.24681069 5.52514648 4.45800781 C4.11045214 4.5484778 2.69573918 4.63865714 1.28100586 4.72851562 C-5.88543557 5.18389121 -13.05123502 5.65023584 -20.21386719 6.16235352 C-21.22682861 6.23397705 -22.23979004 6.30560059 -23.28344727 6.37939453 C-25.6020828 6.62255449 -27.70734992 7.01945096 -29.94433594 7.65844727 C-30.27433594 6.66844727 -30.60433594 5.67844727 -30.94433594 4.65844727 C-31.93433594 4.65844727 -32.92433594 4.65844727 -33.94433594 4.65844727 C-32.50683594 2.59594727 -32.50683594 2.59594727 -29.94433594 0.65844727 C-26.8685057 0.60021296 -23.95697945 1.0662182 -20.94433594 1.65844727 C-21.27433594 2.31844727 -21.60433594 2.97844727 -21.94433594 3.65844727 C-16.33433594 3.65844727 -10.72433594 3.65844727 -4.94433594 3.65844727 C-4.94433594 2.99844727 -4.94433594 2.33844727 -4.94433594 1.65844727 C-1.94433594 -0.34155273 -1.94433594 -0.34155273 0 0 Z " fill="#509ADD" transform="translate(129.9443359375,128.341552734375)"/>
<path d="M0 0 C12.66970387 -0.18451025 12.66970387 -0.18451025 18 1 C18 1.66 18 2.32 18 3 C20.64 3.33 23.28 3.66 26 4 C26 4.33 26 4.66 26 5 C7.6247394 7.27658096 7.6247394 7.27658096 0 5 C0 4.34 0 3.68 0 3 C-0.99 2.67 -1.98 2.34 -3 2 C-2.01 2 -1.02 2 0 2 C0 1.34 0 0.68 0 0 Z " fill="#6CBCF3" transform="translate(136,132)"/>
<path d="M0 0 C0.12375 0.639375 0.2475 1.27875 0.375 1.9375 C0.58125 2.618125 0.7875 3.29875 1 4 C1.66 4.33 2.32 4.66 3 5 C2.67 6.98 2.34 8.96 2 11 C-4.40096618 12.32850242 -4.40096618 12.32850242 -6.9375 10.9375 C-8.47555213 8.13281671 -8.39310741 6.14485925 -8 3 C-5.87141064 -0.36093057 -3.79035926 -0.30732643 0 0 Z " fill="#D6D7E0" transform="translate(157,177)"/>
<path d="M0 0 C0.99 0.66 1.98 1.32 3 2 C2.67 2.66 2.34 3.32 2 4 C1.34 3.67 0.68 3.34 0 3 C-0.2165625 4.175625 -0.2165625 4.175625 -0.4375 5.375 C-1 8 -1 8 -2 10 C-2.66 10 -3.32 10 -4 10 C-4.66 7.69 -5.32 5.38 -6 3 C-6.66 3 -7.32 3 -8 3 C-7.69964844 3.62648437 -7.39929688 4.25296875 -7.08984375 4.8984375 C-6.70957031 5.71570313 -6.32929687 6.53296875 -5.9375 7.375 C-5.55464844 8.18710938 -5.17179687 8.99921875 -4.77734375 9.8359375 C-4.52082031 10.55007812 -4.26429687 11.26421875 -4 12 C-4.33 12.66 -4.66 13.32 -5 14 C-5.99 14 -6.98 14 -8 14 C-9.32 11.03 -10.64 8.06 -12 5 C-8.10947463 1.10947463 -5.58275468 -0.57259022 0 0 Z " fill="#F1F2F4" transform="translate(107,175)"/>
<path d="M0 0 C0.33 0.66 0.66 1.32 1 2 C1.66 2.33 2.32 2.66 3 3 C2.01 3.495 2.01 3.495 1 4 C0.67 4.99 0.34 5.98 0 7 C-2.0625 7.6875 -2.0625 7.6875 -4 8 C-3.34 8.66 -2.68 9.32 -2 10 C-2.33 10.99 -2.66 11.98 -3 13 C-7.62 13 -12.24 13 -17 13 C-13.26761171 10.01408937 -9.51455549 7.10977773 -5.6875 4.25 C-5.13771484 3.83878906 -4.58792969 3.42757812 -4.02148438 3.00390625 C-2.68154327 2.00186334 -1.34085026 1.00082603 0 0 Z " fill="#4E98DE" transform="translate(95,133)"/>
<path d="M0 0 C0.99 0 1.98 0 3 0 C3 0.66 3 1.32 3 2 C3.66 2.33 4.32 2.66 5 3 C3.625 4.5 3.625 4.5 2 6 C1.34 6 0.68 6 0 6 C0 5.34 0 4.68 0 4 C-0.99 4.33 -1.98 4.66 -3 5 C-1.35 5.99 0.3 6.98 2 8 C-1.37100733 9.68550367 -4.72014632 7.68863036 -8.125 6.5625 C-8.87910156 6.31951172 -9.63320312 6.07652344 -10.41015625 5.82617188 C-12.27557879 5.22404181 -14.13807683 4.61286537 -16 4 C-15.67 3.01 -15.34 2.02 -15 1 C-14.00097656 1.01160156 -13.00195312 1.02320313 -11.97265625 1.03515625 C-10.68230469 1.04417969 -9.39195312 1.05320313 -8.0625 1.0625 C-6.13083984 1.07990234 -6.13083984 1.07990234 -4.16015625 1.09765625 C-1.13701597 1.36532549 -1.13701597 1.36532549 0 0 Z " fill="#182643" transform="translate(139,54)"/>
<path d="M0 0 C3.77076545 -0.05899621 7.54140926 -0.09392568 11.3125 -0.125 C12.36501953 -0.14175781 13.41753906 -0.15851563 14.50195312 -0.17578125 C21.40730531 -0.21827573 28.34389818 -0.03260245 35 2 C35.495 2.99 35.495 2.99 36 4 C28.26710105 4.13346967 20.64432581 3.60638502 12.9375 3 C11.69033203 2.90460938 10.44316406 2.80921875 9.15820312 2.7109375 C6.10522148 2.47699255 3.05251545 2.2399385 0 2 C0 1.34 0 0.68 0 0 Z " fill="#E0F0F7" transform="translate(120,138)"/>
<path d="M0 0 C0 0.33 0 0.66 0 1 C-7.92 1.33 -15.84 1.66 -24 2 C-24.33 2.66 -24.66 3.32 -25 4 C-29.29 4 -33.58 4 -38 4 C-38.33 3.34 -38.66 2.68 -39 2 C-38.67 1.34 -38.34 0.68 -38 0 C-33.55281865 -0.16845963 -29.1054401 -0.32892386 -24.65771484 -0.48217773 C-23.14656938 -0.53535066 -21.6354974 -0.59065854 -20.12451172 -0.64819336 C-17.94514811 -0.73079943 -15.76563047 -0.8055721 -13.5859375 -0.87890625 C-12.2767334 -0.9260376 -10.9675293 -0.97316895 -9.61865234 -1.02172852 C-6.27925861 -1.00167683 -3.26728925 -0.65655271 0 0 Z " fill="#65B6F3" transform="translate(166,114)"/>
<path d="M0 0 C7.92 0 15.84 0 24 0 C23.34 0.66 22.68 1.32 22 2 C21.01 2 20.02 2 19 2 C19 2.66 19 3.32 19 4 C15.32612505 4.85298376 11.9552607 5.10789471 8.1875 5.0625 C7.21167969 5.05347656 6.23585938 5.04445312 5.23046875 5.03515625 C4.12638672 5.01775391 4.12638672 5.01775391 3 5 C4.32 4.34 5.64 3.68 7 3 C4.36 2.67 1.72 2.34 -1 2 C-0.67 1.34 -0.34 0.68 0 0 Z " fill="#86C3F0" transform="translate(101,128)"/>
<path d="M0 0 C0.66 0 1.32 0 2 0 C2.33 3.3 2.66 6.6 3 10 C4.65 9.67 6.3 9.34 8 9 C7.67 8.34 7.34 7.68 7 7 C6.01 7 5.02 7 4 7 C4.33 5.35 4.66 3.7 5 2 C5.5775 2.33 6.155 2.66 6.75 3 C9.19883862 4.27075898 9.19883862 4.27075898 13 4 C13.1546875 4.928125 13.1546875 4.928125 13.3125 5.875 C13.87525373 8.36526484 13.87525373 8.36526484 17 10 C14.23723823 9.47731534 11.6739124 8.89130413 9 8 C8.34 9.65 7.68 11.3 7 13 C6.01 12.67 5.02 12.34 4 12 C4 12.66 4 13.32 4 14 C3.01 13.67 2.02 13.34 1 13 C-0.00496852 9.98509443 -0.10335303 7.95818308 -0.0625 4.8125 C-0.05347656 3.91144531 -0.04445312 3.01039063 -0.03515625 2.08203125 C-0.02355469 1.39496094 -0.01195312 0.70789063 0 0 Z " fill="#0A2147" transform="translate(41,134)"/>
<path d="M0 0 C2.9375 0.125 2.9375 0.125 6 1 C10.22121125 7.83434203 9.11422239 17.27095161 9 25 C8.67 25 8.34 25 8 25 C7.67 21.37 7.34 17.74 7 14 C6.01 14 5.02 14 4 14 C4.33 11.36 4.66 8.72 5 6 C3.02 6.33 1.04 6.66 -1 7 C-1.04254356 5.00045254 -1.04080783 2.99958364 -1 1 C-0.67 0.67 -0.34 0.34 0 0 Z " fill="#F28E6E" transform="translate(174,79)"/>
<path d="M0 0 C10.56 0 21.12 0 32 0 C32 1.32 32 2.64 32 4 C21.2558729 3.45707868 10.65827777 2.4598439 0 1 C0 0.67 0 0.34 0 0 Z " fill="#EBF7F9" transform="translate(120,120)"/>
<path d="M0 0 C3.29164829 -0.02895225 6.58326399 -0.0467823 9.875 -0.0625 C10.81214844 -0.07087891 11.74929687 -0.07925781 12.71484375 -0.08789062 C14.05869141 -0.09272461 14.05869141 -0.09272461 15.4296875 -0.09765625 C16.67081299 -0.10551147 16.67081299 -0.10551147 17.93701172 -0.11352539 C20 0 20 0 22 1 C22.26218749 4.14624993 22.24754367 5.61837017 20.5 8.3125 C20.005 8.869375 19.51 9.42625 19 10 C19 8.35 19 6.7 19 5 C18.29875 4.87882812 17.5975 4.75765625 16.875 4.6328125 C11.18029895 3.62695498 5.59105981 2.47688372 0 1 C0 0.67 0 0.34 0 0 Z " fill="#F4FBFA" transform="translate(162,108)"/>
<path d="M0 0 C2.64 0 5.28 0 8 0 C8.86133501 3.44534004 8.93688374 5.60379646 8 9 C8.33 9.66 8.66 10.32 9 11 C7.68 10.34 6.36 9.68 5 9 C5 8.34 5 7.68 5 7 C4.01 7 3.02 7 2 7 C2 8.32 2 9.64 2 11 C1.34 11 0.68 11 0 11 C0 7.37 0 3.74 0 0 Z " fill="#202441" transform="translate(77,178)"/>
<path d="M0 0 C0.66 0 1.32 0 2 0 C1.67 2.31 1.34 4.62 1 7 C-10.88 7 -22.76 7 -35 7 C-35 6.67 -35 6.34 -35 6 C-31.16714075 5.66106419 -27.33364909 5.32987213 -23.5 5 C-21.88351563 4.85691406 -21.88351563 4.85691406 -20.234375 4.7109375 C-14.46302217 4.21826104 -8.79175323 3.89174293 -3 4 C-2.34 4 -1.68 4 -1 4 C-0.67 2.68 -0.34 1.36 0 0 Z " fill="#82CBF0" transform="translate(179,113)"/>
<path d="M0 0 C0 0.66 0 1.32 0 2 C-1.61068359 1.98259766 -1.61068359 1.98259766 -3.25390625 1.96484375 C-4.69010241 1.95545685 -6.12630048 1.94635762 -7.5625 1.9375 C-8.26697266 1.92912109 -8.97144531 1.92074219 -9.69726562 1.91210938 C-14.23048622 1.89121896 -18.50970733 2.29585278 -23 3 C-27.31691287 3.31145512 -30.26045988 3.49302675 -34 1 C-29.38480626 0.14453574 -24.80476737 -0.2906278 -20.125 -0.5625 C-19.12146484 -0.62727539 -19.12146484 -0.62727539 -18.09765625 -0.69335938 C-4.54733344 -1.51577781 -4.54733344 -1.51577781 0 0 Z " fill="#4B97DC" transform="translate(84,109)"/>
<path d="M0 0 C3.22265625 5.17578125 3.22265625 5.17578125 4 7 C3.67 7.99 3.34 8.98 3 10 C2.29875 9.814375 1.5975 9.62875 0.875 9.4375 C-2.04616377 8.83452252 -2.04616377 8.83452252 -5.125 9.5625 C-8 10 -8 10 -11 8 C-9.54712339 6.66072279 -8.08752741 5.32873153 -6.625 4 C-5.81289062 3.2575 -5.00078125 2.515 -4.1640625 1.75 C-2 0 -2 0 0 0 Z " fill="#FC8A52" transform="translate(160,77)"/>
<path d="M0 0 C2.5215021 -0.08172936 5.04029917 -0.14083373 7.5625 -0.1875 C8.26697266 -0.21263672 8.97144531 -0.23777344 9.69726562 -0.26367188 C14.84847248 -0.33488672 18.24744584 0.86801309 23 3 C26.04572873 3.35694495 26.04572873 3.35694495 28.9375 3.1875 C30.37416016 3.14689453 30.37416016 3.14689453 31.83984375 3.10546875 C32.55269531 3.07066406 33.26554687 3.03585938 34 3 C34 3.66 34 4.32 34 5 C26.08 5.495 26.08 5.495 18 6 C18.33 5.01 18.66 4.02 19 3 C14.38 3 9.76 3 5 3 C5 3.99 5 4.98 5 6 C4.34 5.67 3.68 5.34 3 5 C3 4.01 3 3.02 3 2 C2.01 1.34 1.02 0.68 0 0 Z " fill="#1E2B4F" transform="translate(51,89)"/>
<path d="M0 0 C10.55808656 -0.18451025 10.55808656 -0.18451025 15 1 C12.93317206 3.75149144 11.34146185 5.8050357 7.80615234 6.31884766 C5.24332777 6.26727458 2.73709433 6.07677562 0.1875 5.8125 C-0.69615234 5.74224609 -1.57980469 5.67199219 -2.49023438 5.59960938 C-4.66221398 5.42350292 -6.83151834 5.21493292 -9 5 C-9 4.67 -9 4.34 -9 4 C-6.36 3.67 -3.72 3.34 -1 3 C-0.67 2.01 -0.34 1.02 0 0 Z " fill="#6EC0F4" transform="translate(145,150)"/>
<path d="M0 0 C10.56 0 21.12 0 32 0 C32 0.66 32 1.32 32 2 C22.98865693 2.6331684 14.04028922 3.1723784 5 3 C5 2.67 5 2.34 5 2 C3.35 1.67 1.7 1.34 0 1 C0 0.67 0 0.34 0 0 Z " fill="#50A2EE" transform="translate(80,101)"/>
<path d="M0 0 C3 1 3 1 4.16796875 2.77734375 C4.50441406 3.49019531 4.84085938 4.20304688 5.1875 4.9375 C5.53167969 5.64777344 5.87585938 6.35804688 6.23046875 7.08984375 C7 9 7 9 7 11 C2.545 10.01 2.545 10.01 -2 9 C-2 9.66 -2 10.32 -2 11 C-2.99 10.67 -3.98 10.34 -5 10 C-3.35 6.7 -1.7 3.4 0 0 Z " fill="#4B536D" transform="translate(92,178)"/>
<path d="M0 0 C0.66 0 1.32 0 2 0 C2 0.66 2 1.32 2 2 C2.763125 2.28875 3.52625 2.5775 4.3125 2.875 C7 4 7 4 10 6 C10 6.99 10 7.98 10 9 C6.37 9 2.74 9 -1 9 C-1.09765625 2.84765625 -1.09765625 2.84765625 -1 1 C-0.67 0.67 -0.34 0.34 0 0 Z " fill="#FB754F" transform="translate(121,87)"/>
<path d="M0 0 C11.385 0.99 11.385 0.99 23 2 C20.64641749 4.35358251 20.07031606 4.27871904 16.8671875 4.4140625 C15.65869141 4.47207031 15.65869141 4.47207031 14.42578125 4.53125 C13.16314453 4.57765625 13.16314453 4.57765625 11.875 4.625 C10.60076172 4.68300781 10.60076172 4.68300781 9.30078125 4.7421875 C7.20088316 4.83656494 5.10047109 4.91937586 3 5 C3 4.01 3 3.02 3 2 C2.01 2 1.02 2 0 2 C0 1.34 0 0.68 0 0 Z " fill="#7BC4EC" transform="translate(144,141)"/>
<path d="M0 0 C0.66 0 1.32 0 2 0 C2 3.96 2 7.92 2 12 C-1.99996286 10.66667905 -2.83782337 8.5042173 -5 5 C-5.33 7.31 -5.66 9.62 -6 12 C-6.66 12 -7.32 12 -8 12 C-8 8.37 -8 4.74 -8 1 C-3.70574125 2.07356469 -3.25259529 2.5084773 -1 6 C-0.67 4.02 -0.34 2.04 0 0 Z " fill="#282C4D" transform="translate(144,177)"/>
<path d="M0 0 C0.33 0 0.66 0 1 0 C1.3125 3.3125 1.3125 3.3125 1 7 C-1.4375 8.6875 -1.4375 8.6875 -4 10 C-4.87822312 12.08533633 -4.87822312 12.08533633 -5 14 C-6.98 14.33 -8.96 14.66 -11 15 C-9.87548273 12.0280615 -8.77706209 9.66559313 -7 7 C-6.34 7 -5.68 7 -5 7 C-4.67 6.01 -4.34 5.02 -4 4 C-3.34 4 -2.68 4 -2 4 C-1.34 2.68 -0.68 1.36 0 0 Z " fill="#F9C263" transform="translate(63,49)"/>
<path d="M0 0 C6.93 0 13.86 0 21 0 C21 0.33 21 0.66 21 1 C22.48113281 1.07347656 22.48113281 1.07347656 23.9921875 1.1484375 C25.91417969 1.26058594 25.91417969 1.26058594 27.875 1.375 C29.15117188 1.44460937 30.42734375 1.51421875 31.7421875 1.5859375 C35 2 35 2 37 4 C30.07 4 23.14 4 16 4 C16 3.01 16 2.02 16 1 C10.72 1 5.44 1 0 1 C0 0.67 0 0.34 0 0 Z " fill="#F5FCFA" transform="translate(48,126)"/>
<path d="M0 0 C3.63 0.66 7.26 1.32 11 2 C11 2.66 11 3.32 11 4 C6.71 4.66 2.42 5.32 -2 6 C-2 7.98 -2 9.96 -2 12 C-2.33 12 -2.66 12 -3 12 C-3 9.69 -3 7.38 -3 5 C-3.66 5 -4.32 5 -5 5 C-5.33 4.01 -5.66 3.02 -6 2 C-4.02 2 -2.04 2 0 2 C0 1.34 0 0.68 0 0 Z " fill="#E3F0F5" transform="translate(47,110)"/>
<path d="M0 0 C0.66 0.66 1.32 1.32 2 2 C2.99 1.34 3.98 0.68 5 0 C5.5534764 2.07553648 6 3.84365964 6 6 C6.495 6.433125 6.99 6.86625 7.5 7.3125 C9 9 9 9 9.1875 11.6875 C9.125625 12.450625 9.06375 13.21375 9 14 C8.34 14 7.68 14 7 14 C6.649375 13.195625 6.29875 12.39125 5.9375 11.5625 C4.29150328 8.83013826 4.29150328 8.83013826 1.8046875 8.4453125 C-0.46910278 8.21009282 -2.71504402 8.05269291 -5 8 C-5 7.67 -5 7.34 -5 7 C-3.35 6.67 -1.7 6.34 0 6 C-0.66 4.35 -1.32 2.7 -2 1 C-1.34 0.67 -0.68 0.34 0 0 Z " fill="#132E5B" transform="translate(133,92)"/>
<path d="M0 0 C1.98 0.66 3.96 1.32 6 2 C6 2.66 6 3.32 6 4 C10.29 4.66 14.58 5.32 19 6 C19 6.33 19 6.66 19 7 C15.91684615 7.08733513 12.83401173 7.14050127 9.75 7.1875 C8.44095703 7.22520508 8.44095703 7.22520508 7.10546875 7.26367188 C0.58401668 7.33834499 0.58401668 7.33834499 -2.609375 5.48828125 C-3.06828125 4.99714844 -3.5271875 4.50601563 -4 4 C-2.68 2.68 -1.36 1.36 0 0 Z " fill="#4593DD" transform="translate(109,120)"/>
<path d="M0 0 C8.58 0.99 17.16 1.98 26 3 C24 5 24 5 20.875 5.125 C19.92625 5.08375 18.9775 5.0425 18 5 C18 5.66 18 6.32 18 7 C18.66 7.33 19.32 7.66 20 8 C18.68 8 17.36 8 16 8 C16 6.68 16 5.36 16 4 C14.845 3.855625 13.69 3.71125 12.5 3.5625 C8.33333333 3.04166667 4.16666667 2.52083333 0 2 C0 1.34 0 0.68 0 0 Z " fill="#81C6EE" transform="translate(144,123)"/>
<path d="M0 0 C2.875 -0.1875 2.875 -0.1875 6 0 C6.66 0.99 7.32 1.98 8 3 C8.33 2.67 8.66 2.34 9 2 C10.68608966 1.92794489 12.37500659 1.91613932 14.0625 1.9375 C14.98160156 1.94652344 15.90070313 1.95554687 16.84765625 1.96484375 C17.55792969 1.97644531 18.26820313 1.98804687 19 2 C18.67 3.32 18.34 4.64 18 6 C14.04 6 10.08 6 6 6 C5.67 4.35 5.34 2.7 5 1 C3.35 1 1.7 1 0 1 C0 0.67 0 0.34 0 0 Z " fill="#82CBEE" transform="translate(164,102)"/>
<path d="M0 0 C2.62113708 0 4.50935112 0.31292445 7 1 C5.42572343 4.00611859 3.8521731 6.12149979 1 8 C-3.77167992 8.32871573 -8.29018229 7.7677648 -13 7 C-13 6.67 -13 6.34 -13 6 C-8.71 5.34 -4.42 4.68 0 4 C-0.33 3.01 -0.66 2.02 -1 1 C-0.67 0.67 -0.34 0.34 0 0 Z " fill="#F88954" transform="translate(136,80)"/>
<path d="M0 0 C0 0.66 0 1.32 0 2 C-3.63 2 -7.26 2 -11 2 C-11 2.99 -11 3.98 -11 5 C-14 4 -14 4 -15 3 C-15 3.99 -15 4.98 -15 6 C-12.69 6 -10.38 6 -8 6 C-8 6.33 -8 6.66 -8 7 C-12.455 7.495 -12.455 7.495 -17 8 C-17.33 7.34 -17.66 6.68 -18 6 C-14.84678423 -2.4085754 -7.89108351 -0.56967715 0 0 Z " fill="#60AEF0" transform="translate(139,104)"/>
<path d="M0 0 C12.87 0 25.74 0 39 0 C39 0.33 39 0.66 39 1 C33.94636841 1.28625572 28.89265725 1.57104803 23.83886719 1.85449219 C22.12009459 1.95109615 20.40134431 2.04809802 18.68261719 2.14550781 C16.21034429 2.28555564 13.73799433 2.42416632 11.265625 2.5625 C10.11540863 2.62812134 10.11540863 2.62812134 8.94195557 2.69506836 C5.61944143 2.87972988 2.32907982 3 -1 3 C-0.67 2.01 -0.34 1.02 0 0 Z " fill="#72BEEE" transform="translate(117,118)"/>
<path d="M0 0 C2.64 0 5.28 0 8 0 C6.95581055 1.48168945 6.95581055 1.48168945 5 3 C2.48272281 3.26153286 0.21896034 3.3497922 -2.29296875 3.29296875 C-3.35201164 3.28660149 -3.35201164 3.28660149 -4.43244934 3.28010559 C-6.68452303 3.26333034 -8.93569742 3.22568243 -11.1875 3.1875 C-12.71548185 3.17245157 -14.24347776 3.15876344 -15.77148438 3.14648438 C-19.51466872 3.11343089 -23.25718196 3.06165832 -27 3 C-27 2.34 -27 1.68 -27 1 C-18.09 1 -9.18 1 0 1 C0 0.67 0 0.34 0 0 Z " fill="#F7FBFE" transform="translate(83,128)"/>
<path d="M0 0 C1.258125 -0.04125 2.51625 -0.0825 3.8125 -0.125 C4.52019531 -0.14820312 5.22789062 -0.17140625 5.95703125 -0.1953125 C8 0 8 0 11 2 C9.35 2.66 7.7 3.32 6 4 C6 4.66 6 5.32 6 6 C6.66 6.33 7.32 6.66 8 7 C6.9790625 6.7834375 6.9790625 6.7834375 5.9375 6.5625 C2.63726918 5.93054091 -0.67144426 5.45686059 -4 5 C-3.67 4.34 -3.34 3.68 -3 3 C-2.01 3 -1.02 3 0 3 C0 2.01 0 1.02 0 0 Z " fill="#67BCF6" transform="translate(144,125)"/>
<path d="M0 0 C5.28 0 10.56 0 16 0 C16 0.66 16 1.32 16 2 C16.99 2 17.98 2 19 2 C19 2.66 19 3.32 19 4 C15.37 4 11.74 4 8 4 C8 3.34 8 2.68 8 2 C5.36 1.67 2.72 1.34 0 1 C0 0.67 0 0.34 0 0 Z " fill="#61B8F4" transform="translate(128,141)"/>
<path d="M0 0 C0.67836914 0.2172876 1.35673828 0.4345752 2.05566406 0.65844727 C4.80506334 1.03662769 7.55047995 1.39236966 10.30566406 1.72094727 C11.05074219 1.81182617 11.79582031 1.90270508 12.56347656 1.99633789 C14.39393463 2.2192783 16.22476416 2.43916507 18.05566406 2.65844727 C18.05566406 2.98844727 18.05566406 3.31844727 18.05566406 3.65844727 C8.81566406 3.98844727 -0.42433594 4.31844727 -9.94433594 4.65844727 C-9.94433594 4.32844727 -9.94433594 3.99844727 -9.94433594 3.65844727 C-8.29433594 3.65844727 -6.64433594 3.65844727 -4.94433594 3.65844727 C-4.94433594 2.99844727 -4.94433594 2.33844727 -4.94433594 1.65844727 C-1.94433594 -0.34155273 -1.94433594 -0.34155273 0 0 Z " fill="#4393DF" transform="translate(129.9443359375,128.341552734375)"/>
<path d="M0 0 C0.33 0.99 0.66 1.98 1 3 C-0.98 3 -2.96 3 -5 3 C-5.33 4.65 -5.66 6.3 -6 8 C-4.02 8.66 -2.04 9.32 0 10 C0 9.01 0 8.02 0 7 C-0.99 6.67 -1.98 6.34 -3 6 C-1.35 6 0.3 6 2 6 C2 7.65 2 9.3 2 11 C-4.40096618 12.32850242 -4.40096618 12.32850242 -6.9375 10.9375 C-8.47555213 8.13281671 -8.39310741 6.14485925 -8 3 C-5.87141064 -0.36093057 -3.79035926 -0.30732643 0 0 Z " fill="#272841" transform="translate(157,177)"/>
<path d="M0 0 C-0.33 1.65 -0.66 3.3 -1 5 C-2.32 4.34 -3.64 3.68 -5 3 C-5 5.97 -5 8.94 -5 12 C-5.66 12 -6.32 12 -7 12 C-7 8.7 -7 5.4 -7 2 C-8.32 2 -9.64 2 -11 2 C-11 1.34 -11 0.68 -11 0 C-9.54263913 -0.19491452 -8.08405407 -0.38069358 -6.625 -0.5625 C-5.81289062 -0.66691406 -5.00078125 -0.77132812 -4.1640625 -0.87890625 C-2 -1 -2 -1 0 0 Z " fill="#6D6F82" transform="translate(77,177)"/>
<path d="M0 0 C3.63 0.33 7.26 0.66 11 1 C10.67 2.65 10.34 4.3 10 6 C9.01 5.855625 8.02 5.71125 7 5.5625 C3.00590535 4.99074821 -0.99532937 4.49180166 -5 4 C-5 3.67 -5 3.34 -5 3 C-3.35 2.67 -1.7 2.34 0 2 C0 1.34 0 0.68 0 0 Z " fill="#DBF1F8" transform="translate(162,128)"/>
<path d="M0 0 C0.33 0 0.66 0 1 0 C1.28875 0.886875 1.5775 1.77375 1.875 2.6875 C2.83148748 5.50382424 3.86798946 8.25083156 5 11 C4.34 11 3.68 11 3 11 C3 11.66 3 12.32 3 13 C2.34 13 1.68 13 1 13 C1.33 11.68 1.66 10.36 2 9 C0.68 9 -0.64 9 -2 9 C-1.67 10.32 -1.34 11.64 -1 13 C-2.65 13 -4.3 13 -6 13 C-6 12.34 -6 11.68 -6 11 C-5 10 -4 9 -3 8 C-2.67 7.01 -2.34 6.02 -2 5 C-1.34 5 -0.68 5 0 5 C0 3.35 0 1.7 0 0 Z " fill="#CACCCD" transform="translate(148,181)"/>
<path d="M0 0 C9.41002278 -0.18451025 9.41002278 -0.18451025 14 1 C14.33 2.65 14.66 4.3 15 6 C12.36 6 9.72 6 7 6 C7 5.34 7 4.68 7 4 C6.34 3.67 5.68 3.34 5 3 C5 2.67 5 2.34 5 2 C3.35 1.67 1.7 1.34 0 1 C0 0.67 0 0.34 0 0 Z " fill="#72C6F2" transform="translate(155,102)"/>
<path d="M0 0 C0.33 0 0.66 0 1 0 C1 2.64 1 5.28 1 8 C2.98 7.67 4.96 7.34 7 7 C6.67 10.63 6.34 14.26 6 18 C5.67 18 5.34 18 5 18 C5 16.35 5 14.7 5 13 C4.01 13 3.02 13 2 13 C2 15.64 2 18.28 2 21 C1.67 21 1.34 21 1 21 C1 18.03 1 15.06 1 12 C1.66 12 2.32 12 3 12 C3 11.01 3 10.02 3 9 C2.01 9 1.02 9 0 9 C0 6.03 0 3.06 0 0 Z " fill="#C56D58" transform="translate(172,78)"/>
<path d="M0 0 C0.66 0.66 1.32 1.32 2 2 C4.57061311 2.64767793 4.57061311 2.64767793 7 3 C7 3.33 7 3.66 7 4 C4.10388456 3.85865273 1.2081919 3.7120847 -1.6875 3.5625 C-2.50412109 3.52318359 -3.32074219 3.48386719 -4.16210938 3.44335938 C-8.19655811 3.23101997 -12.05747309 2.95552078 -16 2 C-16 1.67 -16 1.34 -16 1 C-10.60293036 0.22899005 -5.45399653 -0.28210327 0 0 Z " fill="#DAF0F9" transform="translate(144,146)"/>
<path d="M0 0 C0.33 0.66 0.66 1.32 1 2 C0.278125 2.556875 -0.44375 3.11375 -1.1875 3.6875 C-4.5978297 6.49154886 -7.67827688 9.52577036 -10.625 12.8125 C-12 14 -12 14 -15 14 C-15 13.01 -15 12.02 -15 11 C-13.09411168 9.34232039 -11.24031365 7.88891265 -9.1875 6.4375 C-8.64029297 6.03853516 -8.09308594 5.63957031 -7.52929688 5.22851562 C-5.05338886 3.43085635 -2.54591533 1.69727688 0 0 Z " fill="#0F264F" transform="translate(122,106)"/>
<path d="M0 0 C0.99 0 1.98 0 3 0 C3 3.63 3 7.26 3 11 C3.99 11 4.98 11 6 11 C6 11.66 6 12.32 6 13 C4.02 13 2.04 13 0 13 C0 8.71 0 4.42 0 0 Z " fill="#F3705D" transform="translate(174,91)"/>
<path d="M0 0 C0.99 0.33 1.98 0.66 3 1 C2.9375 2.8125 2.9375 2.8125 2 5 C-1.52950565 6.96837815 -3.87288134 8.11990624 -7.9375 7.6875 C-8.618125 7.460625 -9.29875 7.23375 -10 7 C-9 5 -9 5 -6.93359375 4.1484375 C-5.69802734 3.76558594 -5.69802734 3.76558594 -4.4375 3.375 C-3.61121094 3.11460937 -2.78492188 2.85421875 -1.93359375 2.5859375 C-1.29550781 2.39257812 -0.65742188 2.19921875 0 2 C0 1.34 0 0.68 0 0 Z " fill="#EDF7F8" transform="translate(149,158)"/>
<path d="M0 0 C3.96 0 7.92 0 12 0 C12.33 1.32 12.66 2.64 13 4 C9.16423878 5.38087404 5.91644812 4.94284862 2 4 C1.34 2.68 0.68 1.36 0 0 Z " fill="#B9BCC1" transform="translate(87,191)"/>
<path d="M0 0 C0.66 0 1.32 0 2 0 C3.4606285 2.64738916 4 3.89448334 4 7 C4.66 7 5.32 7 6 7 C6.66 4.69 7.32 2.38 8 0 C8.66 0 9.32 0 10 0 C9.39301257 4.12751449 7.96189209 7.3321148 6 11 C5.34 11 4.68 11 4 11 C3.32880451 9.5437455 2.66318193 8.08492133 2 6.625 C1.62875 5.81289062 1.2575 5.00078125 0.875 4.1640625 C0 2 0 2 0 0 Z " fill="#232645" transform="translate(99,178)"/>
<path d="M0 0 C2.64 0 5.28 0 8 0 C8 2.31 8 4.62 8 7 C7.01 6.67 6.02 6.34 5 6 C4.01 6 3.02 6 2 6 C2.33 4.68 2.66 3.36 3 2 C1.68 2.33 0.36 2.66 -1 3 C-0.67 2.01 -0.34 1.02 0 0 Z " fill="#0A1D43" transform="translate(176,45)"/>
<path d="M0 0 C2.625 -0.1875 2.625 -0.1875 5 0 C4.57847656 0.43570313 4.15695313 0.87140625 3.72265625 1.3203125 C0.23634805 5.11013459 -1.73880963 7.64559734 -2 13 C-2.33 13 -2.66 13 -3 13 C-3 11.02 -3 9.04 -3 7 C-5.97 6.505 -5.97 6.505 -9 6 C-7 4 -7 4 -4.5 3.5625 C-1.65063471 3.2234444 -1.65063471 3.2234444 0 0 Z " fill="#0E1D46" transform="translate(173,58)"/>
<path d="M0 0 C2.0625 0.4375 2.0625 0.4375 4 1 C4 2.32 4 3.64 4 5 C2.02 5.99 2.02 5.99 0 7 C-0.33 6.34 -0.66 5.68 -1 5 C-2.92638012 4.24756445 -2.92638012 4.24756445 -5 4 C-5.99 4.495 -5.99 4.495 -7 5 C-7 3.68 -7 2.36 -7 1 C-5.5459375 1.0309375 -5.5459375 1.0309375 -4.0625 1.0625 C-1.12534105 1.35618499 -1.12534105 1.35618499 0 0 Z " fill="#BABDC1" transform="translate(129,190)"/>
<path d="M0 0 C0.33 0.66 0.66 1.32 1 2 C1.66 2.33 2.32 2.66 3 3 C-1.455 3.495 -1.455 3.495 -6 4 C-5.67 4.66 -5.34 5.32 -5 6 C-8.3 6 -11.6 6 -15 6 C-15 5.01 -15 4.02 -15 3 C-12 4 -12 4 -11 5 C-11 4.01 -11 3.02 -11 2 C-7.37 2 -3.74 2 0 2 C0 1.34 0 0.68 0 0 Z " fill="#408DDB" transform="translate(139,104)"/>
<path d="M0 0 C0 0.66 0 1.32 0 2 C-3.58721171 3.56079778 -6.958386 4.47490848 -10.8125 5.125 C-11.78832031 5.29257813 -12.76414062 5.46015625 -13.76953125 5.6328125 C-14.87361328 5.81457031 -14.87361328 5.81457031 -16 6 C-16 5.01 -16 4.02 -16 3 C-10.59257502 1.06877679 -5.75200635 0 0 0 Z " fill="#FD844B" transform="translate(136,82)"/>
<path d="M0 0 C2.00720923 0.28674418 4.0085944 0.61866701 6 1 C6 3.64 6 6.28 6 9 C5.67 8.01 5.34 7.02 5 6 C3.02 6.33 1.04 6.66 -1 7 C-1.04254356 5.00045254 -1.04080783 2.99958364 -1 1 C-0.67 0.67 -0.34 0.34 0 0 Z " fill="#FC8A4F" transform="translate(174,79)"/>
<path d="M0 0 C5.39795989 1.15058556 10.70987333 2.42421759 16 4 C16 4.33 16 4.66 16 5 C11.38 5 6.76 5 2 5 C1.34 3.35 0.68 1.7 0 0 Z " fill="#ECB256" transform="translate(126,59)"/>
<path d="M0 0 C3.21524305 1.40844718 5.32183868 3.10344786 7.75 5.625 C8.67039063 6.57246094 8.67039063 6.57246094 9.609375 7.5390625 C10.29773438 8.26222656 10.29773438 8.26222656 11 9 C10.01 9.99 9.02 10.98 8 12 C6.02 8.535 6.02 8.535 4 5 C3.67 5.66 3.34 6.32 3 7 C2.01 6.67 1.02 6.34 0 6 C0 4.02 0 2.04 0 0 Z " fill="#FAC35B" transform="translate(156,45)"/>
<path d="M0 0 C3.30439099 4.40585465 3.86678482 6.76977608 5 12 C4.34 12 3.68 12 3 12 C2.67 12.99 2.34 13.98 2 15 C2 14.01 2 13.02 2 12 C0.68 12 -0.64 12 -2 12 C-2 11.34 -2 10.68 -2 10 C-1.01 10 -0.02 10 1 10 C0.67 6.7 0.34 3.4 0 0 Z " fill="#F3A061" transform="translate(175,68)"/>
<path d="M0 0 C0.99 0 1.98 0 3 0 C3 3.96 3 7.92 3 12 C2.01 12 1.02 12 0 12 C0 8.04 0 4.08 0 0 Z " fill="#727389" transform="translate(131,177)"/>
<path d="M0 0 C2 0.75 2 0.75 4 3.75 C3.34 3.75 2.68 3.75 2 3.75 C2 4.41 2 5.07 2 5.75 C2.66 6.08 3.32 6.41 4 6.75 C1.125 6.5625 1.125 6.5625 -2 5.75 C-3.375 3.1875 -3.375 3.1875 -4 0.75 C-2 -0.25 -2 -0.25 0 0 Z " fill="#EFF4F6" transform="translate(66,152.25)"/>
<path d="M0 0 C6.6 0 13.2 0 20 0 C20 0.33 20 0.66 20 1 C17.69 1.33 15.38 1.66 13 2 C13.33 2.66 13.66 3.32 14 4 C12.22773547 3.71715982 10.457212 3.42339502 8.6875 3.125 C7.20830078 2.88136719 7.20830078 2.88136719 5.69921875 2.6328125 C3 2 3 2 0 0 Z " fill="#E0F5FB" transform="translate(162,108)"/>
<path d="M0 0 C0.33 0.99 0.66 1.98 1 3 C-2.9813783 4.3271261 -6.85045227 4.06915913 -11 4 C-11 3.01 -11 2.02 -11 1 C-7.32589215 -0.17571451 -3.83070817 -0.07366746 0 0 Z " fill="#0C234A" transform="translate(67,91)"/>
<path d="M0 0 C0 0.66 0 1.32 0 2 C1.32 2.66 2.64 3.32 4 4 C-1.75 4.125 -1.75 4.125 -4 3 C-4 2.34 -4 1.68 -4 1 C-4.515625 1.33 -5.03125 1.66 -5.5625 2 C-8.78026512 3.32010877 -11.5570528 3.13242105 -15 3 C-15 2.67 -15 2.34 -15 2 C-9.68670645 -0.08989546 -5.71271928 -1.6112798 0 0 Z " fill="#D5AB54" transform="translate(146,53)"/>
<path d="M0 0 C0.33 0.66 0.66 1.32 1 2 C3.02463255 2.65213292 3.02463255 2.65213292 5 3 C1.68929162 4.00109515 -1.30084769 4.10356134 -4.75 4.0625 C-5.73484375 4.05347656 -6.7196875 4.04445312 -7.734375 4.03515625 C-8.48203125 4.02355469 -9.2296875 4.01195312 -10 4 C-10 3.01 -10 2.02 -10 1 C-6.7 0.67 -3.4 0.34 0 0 Z " fill="#529CE2" transform="translate(79,151)"/>
<path d="M0 0 C1.95901454 0.11382653 3.9172338 0.24141125 5.875 0.375 C6.96554688 0.44460937 8.05609375 0.51421875 9.1796875 0.5859375 C12 1 12 1 14 3 C11.60457263 4.50823205 10.41454069 5.05314624 7.5625 4.6875 C6.716875 4.460625 5.87125 4.23375 5 4 C3.6078125 3.7215625 3.6078125 3.7215625 2.1875 3.4375 C1.465625 3.293125 0.74375 3.14875 0 3 C0 2.01 0 1.02 0 0 Z " fill="#4490DD" transform="translate(88,119)"/>
<path d="M0 0 C0.66 0 1.32 0 2 0 C2 2.97 2 5.94 2 9 C3.98 9 5.96 9 8 9 C8 9.66 8 10.32 8 11 C5.36 11 2.72 11 0 11 C0 7.37 0 3.74 0 0 Z " fill="#222644" transform="translate(122,178)"/>
<path d="M0 0 C0.721875 0.185625 1.44375 0.37125 2.1875 0.5625 C5.13982052 1.02174986 7.11300664 0.62421478 10 0 C10.66 0.33 11.32 0.66 12 1 C12 1.66 12 2.32 12 3 C9.47524538 4.26237731 7.68799534 4.09856404 4.875 4.0625 C3.96492188 4.05347656 3.05484375 4.04445312 2.1171875 4.03515625 C1.41851562 4.02355469 0.71984375 4.01195312 0 4 C0 2.68 0 1.36 0 0 Z " fill="#508FD6" transform="translate(54,138)"/>
<path d="M0 0 C5.94 0.66 11.88 1.32 18 2 C18 2.33 18 2.66 18 3 C11.4 3 4.8 3 -2 3 C-1.34 2.01 -0.68 1.02 0 0 Z " fill="#56A2E9" transform="translate(104,125)"/>
<path d="M0 0 C2.475 0.99 2.475 0.99 5 2 C5.33 1.34 5.66 0.68 6 0 C6 4 6 4 3.5 6.75 C2.675 7.4925 1.85 8.235 1 9 C-1.125 3.375 -1.125 3.375 0 0 Z " fill="#EA9B50" transform="translate(145,68)"/>
<path d="M0 0 C1.32 0.66 2.64 1.32 4 2 C4 2.66 4 3.32 4 4 C4.99 4.66 5.98 5.32 7 6 C6.67 6.66 6.34 7.32 6 8 C3.84365964 8 2.07553648 7.5534764 0 7 C0 4.66666667 0 2.33333333 0 0 Z " fill="#E0E1E0" transform="translate(80,186)"/>
<path d="M0 0 C1.1577506 3.47325181 1.06866652 6.36067448 1 10 C-0.65 10 -2.3 10 -4 10 C-3.125 4.25 -3.125 4.25 -2 2 C-1.34 2 -0.68 2 0 2 C0 1.34 0 0.68 0 0 Z " fill="#F98F5F" transform="translate(47,78)"/>
<path d="M0 0 C0.66 0 1.32 0 2 0 C0.41078475 5.36095277 -1.18972938 10.70843973 -3 16 C-3.66 16 -4.32 16 -5 16 C-5 13.69 -5 11.38 -5 9 C-4.01 8.67 -3.02 8.34 -2 8 C-1.855625 7.236875 -1.71125 6.47375 -1.5625 5.6875 C-1 3 -1 3 0 0 Z " fill="#FAF5E9" transform="translate(46,72)"/>
<path d="M0 0 C2 1.5625 2 1.5625 4 4 C4.51470588 9.97058824 4.51470588 9.97058824 3 13 C2.34 13 1.68 13 1 13 C1.33 11.02 1.66 9.04 2 7 C1.01 7 0.02 7 -1 7 C-0.67 6.01 -0.34 5.02 0 4 C0 2.68 0 1.36 0 0 Z " fill="#E57D5F" transform="translate(162,81)"/>
<path d="M0 0 C-1.609375 2.046875 -1.609375 2.046875 -4 4 C-7.015625 3.953125 -7.015625 3.953125 -10.25 3.25 C-11.32765625 3.02828125 -12.4053125 2.8065625 -13.515625 2.578125 C-14.33546875 2.38734375 -15.1553125 2.1965625 -16 2 C-16 1.67 -16 1.34 -16 1 C-10.59255982 0.22750855 -5.46137814 -0.09752461 0 0 Z " fill="#4992D9" transform="translate(120,107)"/>
<path d="M0 0 C2.66219829 0.37747588 5.32964035 0.68317767 8 1 C8 1.33 8 1.66 8 2 C7.01257813 2.06058594 6.02515625 2.12117188 5.0078125 2.18359375 C3.72648438 2.26738281 2.44515625 2.35117188 1.125 2.4375 C-0.15117187 2.51871094 -1.42734375 2.59992188 -2.7421875 2.68359375 C-5.88300152 2.79206027 -5.88300152 2.79206027 -8 4 C-8 3.34 -8 2.68 -8 2 C-8.66 1.67 -9.32 1.34 -10 1 C-6.11437421 -0.88730396 -4.14374204 -1.06002703 0 0 Z " fill="#3E86CD" transform="translate(131,102)"/>
<path d="M0 0 C1.1446875 0.495 1.1446875 0.495 2.3125 1 C7.25174651 2.33945668 11.91463109 2.16287658 17 2 C17 2.66 17 3.32 17 4 C9.08 4.495 9.08 4.495 1 5 C1.33 4.01 1.66 3.02 2 2 C1.34 2 0.68 2 0 2 C0 1.34 0 0.68 0 0 Z " fill="#242745" transform="translate(68,90)"/>
<path d="M0 0 C3.4815554 -0.09947301 6.6322481 0.06451336 10 1 C10.33 1.66 10.66 2.32 11 3 C11.99 3.66 12.98 4.32 14 5 C10.7 4.67 7.4 4.34 4 4 C4 3.34 4 2.68 4 2 C2.68 2.33 1.36 2.66 0 3 C0 2.01 0 1.02 0 0 Z " fill="#DCAF5A" transform="translate(150,53)"/>
<path d="M0 0 C0 1.32 0 2.64 0 4 C-3.63 4.66 -7.26 5.32 -11 6 C-11 5.34 -11 4.68 -11 4 C-7.46388043 1.54436141 -4.33090187 0 0 0 Z " fill="#FAF7EB" transform="translate(104,26)"/>
<path d="M0 0 C1.32 0.33 2.64 0.66 4 1 C4.33 2.32 4.66 3.64 5 5 C4.34 4.67 3.68 4.34 3 4 C2.67 6.31 2.34 8.62 2 11 C1.34 11 0.68 11 0 11 C0 7.37 0 3.74 0 0 Z " fill="#202940" transform="translate(136,178)"/>
<path d="M0 0 C2.64 0 5.28 0 8 0 C8 0.66 8 1.32 8 2 C7.01 2.33 6.02 2.66 5 3 C5.99 3.66 6.98 4.32 8 5 C5.36 5.33 2.72 5.66 0 6 C0.185625 5.38125 0.37125 4.7625 0.5625 4.125 C1.23686176 1.95839822 1.23686176 1.95839822 0 0 Z " fill="#64B6F5" transform="translate(120,143)"/>
<path d="M0 0 C0.66 0 1.32 0 2 0 C2.06058594 0.75925781 2.12117188 1.51851562 2.18359375 2.30078125 C2.26738281 3.29464844 2.35117187 4.28851563 2.4375 5.3125 C2.55931641 6.79169922 2.55931641 6.79169922 2.68359375 8.30078125 C2.91812559 11.09375599 2.91812559 11.09375599 4 14 C3.01 13.67 2.02 13.34 1 13 C-0.00496852 9.98509443 -0.10335303 7.95818308 -0.0625 4.8125 C-0.05347656 3.91144531 -0.04445312 3.01039063 -0.03515625 2.08203125 C-0.02355469 1.39496094 -0.01195312 0.70789063 0 0 Z " fill="#0C193E" transform="translate(41,134)"/>
<path d="M0 0 C2.97 0 5.94 0 9 0 C8.67 1.32 8.34 2.64 8 4 C5.6875 4.6875 5.6875 4.6875 3 5 C1.1875 3.6875 1.1875 3.6875 0 2 C0 1.34 0 0.68 0 0 Z " fill="#3C8BD9" transform="translate(52,134)"/>
<path d="M0 0 C1.43088528 2.86177057 0.59991697 4.93375773 0 8 C1.65 8 3.3 8 5 8 C5 8.66 5 9.32 5 10 C6.32 10.33 7.64 10.66 9 11 C1.73545966 11.33020638 1.73545966 11.33020638 -1 9 C-1.875 5.5 -1.875 5.5 -2 2 C-1.34 1.34 -0.68 0.68 0 0 Z " fill="#CB7071" transform="translate(143,90)"/>
<path d="M0 0 C0.33 0 0.66 0 1 0 C1 2.97 1 5.94 1 9 C-0.65 8.67 -2.3 8.34 -4 8 C-4 6.35 -4 4.7 -4 3 C-1 4 -1 4 0 5 C0 3.35 0 1.7 0 0 Z " fill="#FAFBFA" transform="translate(76,177)"/>
<path d="M0 0 C-0.99 0.33 -1.98 0.66 -3 1 C-3.33 1.99 -3.66 2.98 -4 4 C-6.4375 5.75 -6.4375 5.75 -9 7 C-9.66 6.67 -10.32 6.34 -11 6 C-4.94863014 -1.48458904 -4.94863014 -1.48458904 0 0 Z " fill="#F2FAF8" transform="translate(164,152)"/>
<path d="M0 0 C0.33 0.99 0.66 1.98 1 3 C7.93 3.495 7.93 3.495 15 4 C15 4.33 15 4.66 15 5 C8.73 5 2.46 5 -4 5 C-2.68 3.35 -1.36 1.7 0 0 Z " fill="#498EDA" transform="translate(121,108)"/>
<path d="M0 0 C1.58409994 0.11487748 3.16728963 0.24234508 4.75 0.375 C6.07257813 0.47941406 6.07257813 0.47941406 7.421875 0.5859375 C9.99066382 0.99850055 11.75841015 1.71160957 14 3 C10.0186217 4.3271261 6.14954773 4.06915913 2 4 C2.66 3.34 3.32 2.68 4 2 C2.68 1.34 1.36 0.68 0 0 Z " fill="#50A3EA" transform="translate(150,102)"/>
<path d="M0 0 C0 1.98 0 3.96 0 6 C-4.455 7.485 -4.455 7.485 -9 9 C-2 0 -2 0 0 0 Z " fill="#E6E9ED" transform="translate(184,53)"/>
<path d="M0 0 C-1 3 -1 3 -2.8125 4.1875 C-5 5 -5 5 -9 5 C-9 4.34 -9 3.68 -9 3 C-9.66 2.67 -10.32 2.34 -11 2 C-7.17679443 0.57741188 -4.08718695 -0.24042276 0 0 Z " fill="#F8C158" transform="translate(96,32)"/>
<path d="M0 0 C1.98 0 3.96 0 6 0 C5.04578192 1.14926266 4.08647955 2.29430541 3.125 3.4375 C2.59132812 4.07558594 2.05765625 4.71367188 1.5078125 5.37109375 C0 7 0 7 -2 8 C-2.66 7.34 -3.32 6.68 -4 6 C-3.01 5.34 -2.02 4.68 -1 4 C-0.27617533 1.94074861 -0.27617533 1.94074861 0 0 Z " fill="#E3E7EB" transform="translate(170,45)"/>
<path d="M0 0 C3 3.75 3 3.75 3 6 C-1.455 5.01 -1.455 5.01 -6 4 C-6 4.66 -6 5.32 -6 6 C-6.99 5.67 -7.98 5.34 -9 5 C-7.8125 3.5 -7.8125 3.5 -6 2 C-3.3125 1.8125 -3.3125 1.8125 -1 2 C-0.67 1.34 -0.34 0.68 0 0 Z " fill="#41475F" transform="translate(96,183)"/>
<path d="M0 0 C-0.33 0.66 -0.66 1.32 -1 2 C-6.01462597 2.93493027 -9.97278473 3.13112344 -15 2 C-15 1.67 -15 1.34 -15 1 C-14.06027344 0.90912109 -14.06027344 0.90912109 -13.1015625 0.81640625 C-11.87566406 0.69072266 -11.87566406 0.69072266 -10.625 0.5625 C-9.81289063 0.48128906 -9.00078125 0.40007812 -8.1640625 0.31640625 C-1.96601942 -0.58980583 -1.96601942 -0.58980583 0 0 Z " fill="#112E5B" transform="translate(70,141)"/>
<path d="M0 0 C1.98 0 3.96 0 6 0 C5.67 1.65 5.34 3.3 5 5 C3.68 5 2.36 5 1 5 C0.67 3.35 0.34 1.7 0 0 Z " fill="#FCB64B" transform="translate(120,59)"/>
<path d="M0 0 C1.65 0 3.3 0 5 0 C5 0.99 5 1.98 5 3 C2 2 2 2 1 1 C1 1.99 1 2.98 1 4 C3.31 4 5.62 4 8 4 C8 4.33 8 4.66 8 5 C3.545 5.495 3.545 5.495 -1 6 C-1.33 5.34 -1.66 4.68 -2 4 C-1.0625 1.875 -1.0625 1.875 0 0 Z " fill="#55A1EC" transform="translate(123,106)"/>
<path d="M0 0 C2.25 -0.25 2.25 -0.25 5 0 C7.3125 2 7.3125 2 9 4 C7.02 4 5.04 4 3 4 C3 4.66 3 5.32 3 6 C2.34 6 1.68 6 1 6 C0.67 4.02 0.34 2.04 0 0 Z " fill="#1E3054" transform="translate(43,88)"/>
<path d="M0 0 C2.64 0 5.28 0 8 0 C7.01 0.495 7.01 0.495 6 1 C6.66 2.65 7.32 4.3 8 6 C5.0280615 4.87548273 2.66559313 3.77706209 0 2 C0 1.34 0 0.68 0 0 Z " fill="#122041" transform="translate(123,87)"/>
<path d="M0 0 C0.66 0.33 1.32 0.66 2 1 C2.33 0.34 2.66 -0.32 3 -1 C3 -0.01 3 0.98 3 2 C-0.63 2 -4.26 2 -8 2 C-8 1.34 -8 0.68 -8 0 C-5.11541362 -1.44229319 -3.09360585 -0.64450122 0 0 Z " fill="#D5695C" transform="translate(128,94)"/>
<path d="M0 0 C0.66 0.33 1.32 0.66 2 1 C-1.22723694 5.22879324 -3.68309733 7.89995117 -9 9 C-6.31941902 5.42589203 -3.57410797 2.68058098 0 0 Z " fill="#DE875E" transform="translate(158,77)"/>
<path d="M0 0 C0.33 0 0.66 0 1 0 C1.1875 3.375 1.1875 3.375 1 7 C0.01 7.66 -0.98 8.32 -2 9 C-2.6875 6.75 -2.6875 6.75 -3 4 C-1.625 1.6875 -1.625 1.6875 0 0 Z " fill="#F8BF52" transform="translate(63,49)"/>
<path d="M0 0 C2.64 0 5.28 0 8 0 C6.85546875 1.48828125 6.85546875 1.48828125 5 3 C2.30078125 3.29296875 2.30078125 3.29296875 -0.6875 3.1875 C-1.68136719 3.16042969 -2.67523438 3.13335937 -3.69921875 3.10546875 C-4.45847656 3.07066406 -5.21773438 3.03585938 -6 3 C-6 2.67 -6 2.34 -6 2 C-4.02 1.67 -2.04 1.34 0 1 C0 0.67 0 0.34 0 0 Z " fill="#D7E7F2" transform="translate(83,128)"/>
<path d="M0 0 C2.875 -0.1875 2.875 -0.1875 6 0 C6.66 0.99 7.32 1.98 8 3 C8.99 3 9.98 3 11 3 C10.67 3.99 10.34 4.98 10 6 C8.35 5.67 6.7 5.34 5 5 C5 3.68 5 2.36 5 1 C3.35 1 1.7 1 0 1 C0 0.67 0 0.34 0 0 Z " fill="#80B5DC" transform="translate(164,102)"/>
<path d="M0 0 C4.95 0 9.9 0 15 0 C12.68158481 2.31841519 11.79629678 2.41740489 8.625 2.8125 C7.46871094 2.97685547 7.46871094 2.97685547 6.2890625 3.14453125 C4 3 4 3 0 0 Z " fill="#182844" transform="translate(154,57)"/>
<path d="M0 0 C0.99 0.33 1.98 0.66 3 1 C4.1875 4.0625 4.1875 4.0625 5 7 C3.68 7 2.36 7 1 7 C0.67 4.69 0.34 2.38 0 0 Z " fill="#ECEFEF" transform="translate(98,182)"/>
<path d="M0 0 C0 0.99 0 1.98 0 3 C-1.32 3 -2.64 3 -4 3 C-4 2.34 -4 1.68 -4 1 C-6.64 1 -9.28 1 -12 1 C-12 0.67 -12 0.34 -12 0 C-7.74433453 -1.16063604 -4.3164922 -0.76173392 0 0 Z " fill="#409BEA" transform="translate(84,150)"/>
<path d="M0 0 C0.66 0.66 1.32 1.32 2 2 C4.06874034 2.6425235 4.06874034 2.6425235 6 3 C5.34 4.32 4.68 5.64 4 7 C3.34 6.67 2.68 6.34 2 6 C2 5.34 2 4.68 2 4 C1.34 4 0.68 4 0 4 C0 2.68 0 1.36 0 0 Z M2 1 C6 2 6 2 6 2 Z " fill="#16315B" transform="translate(89,129)"/>
<path d="M0 0 C3.41021743 0.78697325 6.68885166 1.87119943 10 3 C10 3.33 10 3.66 10 4 C7.03 4 4.06 4 1 4 C0.67 2.68 0.34 1.36 0 0 Z " fill="#E4F2F0" transform="translate(49,128)"/>
<path d="M0 0 C1.093125 0.226875 2.18625 0.45375 3.3125 0.6875 C1.3125 2.6875 1.3125 2.6875 -0.6328125 2.8828125 C-2.65104167 2.81770833 -4.66927083 2.75260417 -6.6875 2.6875 C-4.58035839 -0.41123767 -3.86755884 -0.32775922 0 0 Z " fill="#FCFDF9" transform="translate(62.6875,106.3125)"/>
<path d="M0 0 C1.5 1.1875 1.5 1.1875 3 3 C3.1875 5.6875 3.1875 5.6875 3 8 C2.34 8 1.68 8 1 8 C0.01 6.02 -0.98 4.04 -2 2 C-1.34 2 -0.68 2 0 2 C0 1.34 0 0.68 0 0 Z " fill="#0D2556" transform="translate(139,98)"/>
<path d="M0 0 C1.65 0 3.3 0 5 0 C5.33 0.99 5.66 1.98 6 3 C5.34 3 4.68 3 4 3 C3.67 3.66 3.34 4.32 3 5 C2.01 4.67 1.02 4.34 0 4 C0 2.68 0 1.36 0 0 Z " fill="#BFC1C3" transform="translate(102,191)"/>
<path d="M0 0 C1.65 0 3.3 0 5 0 C5.33 1.32 5.66 2.64 6 4 C4.02 4 2.04 4 0 4 C0 2.68 0 1.36 0 0 Z " fill="#BEC2C5" transform="translate(109,191)"/>
<path d="M0 0 C0.66 0 1.32 0 2 0 C2 0.66 2 1.32 2 2 C3.32 2 4.64 2 6 2 C6 2.99 6 3.98 6 5 C4.35 5 2.7 5 1 5 C0.67 3.35 0.34 1.7 0 0 Z " fill="#E8EBEE" transform="translate(151,182)"/>
<path d="M0 0 C0.66 0.99 1.32 1.98 2 3 C1.125 6.1875 1.125 6.1875 0 9 C-0.66 9 -1.32 9 -2 9 C-2 6.36 -2 3.72 -2 1 C-1.34 0.67 -0.68 0.34 0 0 Z " fill="#E9ECEE" transform="translate(148,177)"/>
<path d="M0 0 C0.33 0.66 0.66 1.32 1 2 C0.195625 2.61875 -0.60875 3.2375 -1.4375 3.875 C-4.03874519 5.74164041 -4.03874519 5.74164041 -5 8 C-6.65 8 -8.3 8 -10 8 C-6.66666667 5.33333333 -3.33333333 2.66666667 0 0 Z " fill="#0E3063" transform="translate(122,106)"/>
<path d="M0 0 C4.95 0.99 4.95 0.99 10 2 C10 2.33 10 2.66 10 3 C3.71428571 5.42857143 3.71428571 5.42857143 0 4 C0.66 3.67 1.32 3.34 2 3 C1.34 2.67 0.68 2.34 0 2 C0 1.34 0 0.68 0 0 Z " fill="#82C9F4" transform="translate(160,108)"/>
<path d="M0 0 C1.65 0 3.3 0 5 0 C5 1.32 5 2.64 5 4 C2.36 3.67 -0.28 3.34 -3 3 C-2.01 2.67 -1.02 2.34 0 2 C0 1.34 0 0.68 0 0 Z " fill="#E06F56" transform="translate(107,92)"/>
<path d="M0 0 C0.66 0 1.32 0 2 0 C2 0.66 2 1.32 2 2 C3.2065625 2.433125 3.2065625 2.433125 4.4375 2.875 C7 4 7 4 8 6 C4.97580475 5.41196203 1.98241547 4.77321882 -1 4 C-0.67 2.68 -0.34 1.36 0 0 Z " fill="#DD795E" transform="translate(121,87)"/>
<path d="M0 0 C-0.33 0.99 -0.66 1.98 -1 3 C-7.93 2.505 -7.93 2.505 -15 2 C-15 1.67 -15 1.34 -15 1 C-12.8750734 0.83240016 -10.75005624 0.66594799 -8.625 0.5 C-7.44164062 0.4071875 -6.25828125 0.314375 -5.0390625 0.21875 C-3.36213157 0.09804546 -1.68126944 0 0 0 Z " fill="#D1785A" transform="translate(138,85)"/>
<path d="M0 0 C1.32 0 2.64 0 4 0 C4.33 1.32 4.66 2.64 5 4 C3.68 4.33 2.36 4.66 1 5 C0.67 3.35 0.34 1.7 0 0 Z " fill="#C6C7CA" transform="translate(95,191)"/>
<path d="M0 0 C0.99 0.33 1.98 0.66 3 1 C2.34 1 1.68 1 1 1 C1.226875 1.598125 1.45375 2.19625 1.6875 2.8125 C1.790625 3.534375 1.89375 4.25625 2 5 C0.5625 6.75 0.5625 6.75 -1 8 C-1.66 6.35 -2.32 4.7 -3 3 C-2.01 2.01 -1.02 1.02 0 0 Z " fill="#DADEE3" transform="translate(98,177)"/>
<path d="M0 0 C0.625 1.8125 0.625 1.8125 1 4 C0.01 5.485 0.01 5.485 -1 7 C-2.32 6.34 -3.64 5.68 -5 5 C-3.35 3.35 -1.7 1.7 0 0 Z " fill="#5597D4" transform="translate(115,114)"/>
<path d="M0 0 C0.66 0 1.32 0 2 0 C2 0.66 2 1.32 2 2 C3.32 2.33 4.64 2.66 6 3 C5.67 3.66 5.34 4.32 5 5 C2.4375 5.625 2.4375 5.625 0 6 C-0.38218767 4.34385343 -0.71395102 2.67542976 -1 1 C-0.67 0.67 -0.34 0.34 0 0 Z " fill="#0B224A" transform="translate(141,83)"/>
<path d="M0 0 C2.475 0.495 2.475 0.495 5 1 C5 1.99 5 2.98 5 4 C3.35 4 1.7 4 0 4 C0 2.68 0 1.36 0 0 Z " fill="#E4E9EF" transform="translate(79,179)"/>
<path d="M0 0 C1.65 0 3.3 0 5 0 C5 0.66 5 1.32 5 2 C1.535 3.485 1.535 3.485 -2 5 C-2.66 4.34 -3.32 3.68 -4 3 C-2.68 3 -1.36 3 0 3 C0 2.01 0 1.02 0 0 Z " fill="#7DC4EF" transform="translate(144,158)"/>
<path d="M0 0 C2.64 0 5.28 0 8 0 C5.75 2.0625 5.75 2.0625 3 4 C0.6875 3.75 0.6875 3.75 -1 3 C-0.34 2.67 0.32 2.34 1 2 C0.67 1.34 0.34 0.68 0 0 Z " fill="#0B2145" transform="translate(154,60)"/>
<path d="M0 0 C1.32 0.33 2.64 0.66 4 1 C4 2.32 4 3.64 4 5 C2.02 5.99 2.02 5.99 0 7 C0 4.69 0 2.38 0 0 Z " fill="#CFD2D1" transform="translate(129,190)"/>
<path d="M0 0 C1.98 0 3.96 0 6 0 C6.33 1.65 6.66 3.3 7 5 C5.68 5.33 4.36 5.66 3 6 C3.66 5.67 4.32 5.34 5 5 C4.33131686 1.88667752 4.33131686 1.88667752 1.9375 0.8125 C1.298125 0.544375 0.65875 0.27625 0 0 Z " fill="#151835" transform="translate(79,178)"/>
<path d="M0 0 C0 1.65 0 3.3 0 5 C-0.66 4.01 -1.32 3.02 -2 2 C-3.96361864 1.42251197 -3.96361864 1.42251197 -6.125 1.3125 C-7.40375 1.209375 -8.6825 1.10625 -10 1 C-10 0.67 -10 0.34 -10 0 C-6.30458414 -0.95024979 -3.69541586 -0.95024979 0 0 Z " fill="#D1D3DB" transform="translate(87,177)"/>
<path d="M0 0 C3.63 0 7.26 0 11 0 C10.67 0.99 10.34 1.98 10 3 C6.7 2.34 3.4 1.68 0 1 C0 0.67 0 0.34 0 0 Z " fill="#5DA5E0" transform="translate(112,104)"/>
<path d="M0 0 C-0.33 0.99 -0.66 1.98 -1 3 C-1 2.34 -1 1.68 -1 1 C-1.515625 1.33 -2.03125 1.66 -2.5625 2 C-5.78026512 3.32010877 -8.5570528 3.13242105 -12 3 C-12 2.67 -12 2.34 -12 2 C-7.82262526 0.40861915 -4.46839215 -0.21278058 0 0 Z " fill="#C29C5E" transform="translate(143,53)"/>
<path d="M0 0 C1.98 1.65 3.96 3.3 6 5 C5.01 5.99 4.02 6.98 3 8 C0 3.375 0 3.375 0 0 Z " fill="#E8BC68" transform="translate(161,49)"/>
<path d="M0 0 C0.99 0 1.98 0 3 0 C3 2.31 3 4.62 3 7 C1.68 5.68 0.36 4.36 -1 3 C-0.67 2.01 -0.34 1.02 0 0 Z " fill="#EEF1F2" transform="translate(141,178)"/>
<path d="M0 0 C2.31 0.33 4.62 0.66 7 1 C6.67 1.66 6.34 2.32 6 3 C5.34 2.67 4.68 2.34 4 2 C3.67 2.99 3.34 3.98 3 5 C3 4.01 3 3.02 3 2 C2.01 2.33 1.02 2.66 0 3 C0 2.01 0 1.02 0 0 Z " fill="#DFDFE4" transform="translate(103,176)"/>
<path d="M0 0 C-0.99 0.33 -1.98 0.66 -3 1 C-3 1.66 -3 2.32 -3 3 C-4.65 3 -6.3 3 -8 3 C-8 2.34 -8 1.68 -8 1 C-3.375 -1.125 -3.375 -1.125 0 0 Z " fill="#54A0EB" transform="translate(128,129)"/>
<path d="M0 0 C1.98 0.495 1.98 0.495 4 1 C4 1.66 4 2.32 4 3 C4.66 3.33 5.32 3.66 6 4 C5.01 4.33 4.02 4.66 3 5 C2.67 4.34 2.34 3.68 2 3 C1.01 3 0.02 3 -1 3 C-0.67 2.01 -0.34 1.02 0 0 Z " fill="#152043" transform="translate(138,96)"/>
<path d="M0 0 C2 1 2 1 4 4 C2.35 4.33 0.7 4.66 -1 5 C-1.33 3.68 -1.66 2.36 -2 1 C-1.34 0.67 -0.68 0.34 0 0 Z " fill="#162B4F" transform="translate(131,87)"/>
<path d="M0 0 C1.98 0.495 1.98 0.495 4 1 C3.67 1.66 3.34 2.32 3 3 C4.65 3 6.3 3 8 3 C8 3.33 8 3.66 8 4 C5.03 3.67 2.06 3.34 -1 3 C-0.67 2.01 -0.34 1.02 0 0 Z " fill="#DE785F" transform="translate(72,89)"/>
<path d="M0 0 C1.32 0.33 2.64 0.66 4 1 C2.35 2.65 0.7 4.3 -1 6 C-1.33 5.01 -1.66 4.02 -2 3 C-1.34 2.01 -0.68 1.02 0 0 Z " fill="#E88856" transform="translate(139,80)"/>
<path d="M0 0 C2.625 0.9375 2.625 0.9375 5 2 C4.01 2.495 4.01 2.495 3 3 C2.67 3.66 2.34 4.32 2 5 C1.34 4.67 0.68 4.34 0 4 C0 3.34 0 2.68 0 2 C-0.66 1.67 -1.32 1.34 -2 1 C-1.34 0.67 -0.68 0.34 0 0 Z " fill="#F8C557" transform="translate(144,37)"/>
</svg>
